<?xml version="1.0" encoding="UTF-8"?>
<svg id="Layer_1" data-name="Layer 1" xmlns="http://www.w3.org/2000/svg" width="610" height="400" viewBox="0 0 610 400">
  <path d="M242.25,149.88c-14.22-8.44-31.84-6.81-47.44-4.25-67.43,13.5-142.66,62.01-188.86,112.31-.8.88-.74,2.24.13,3.05.88.82,2.25.77,3.07-.11,20.01-21.46,42.92-40.11,67.19-56.57,8.34-5.52,17.44-11.24,27.05-16.82,4.54,5.73,11.23,13.34,18.06,13.98.87.04.97-1.27.11-1.38-5.93-1.38-11.15-8.95-14.66-14.62,34.3-19.53,74.58-36.85,110.28-37.45,17.99-.02,37.57,8.18,31.33,29.57-3.04,10.42-9.22,19.63-15.89,28.18-4.48,5.79-9.4,11.29-14.55,16.52-.44.44.16,1.12.66.73,14.3-12.56,36.21-35.79,34.74-56.06-.53-7.12-5.17-13.51-11.22-17.1Z" style="fill: #f2f2f2;"/>
  <path d="M302.99,146.33s8.21-3.31,8.21-3.31c1.54-.61,1.14-2.96-.54-3l-8.85-.25c-5.47.23-4.03,8.24,1.18,6.56Z" style="fill: #f2f2f2;"/>
  <path d="M465.42,139.77c-5.47.23-4.03,8.24,1.18,6.56,0,0,8.21-3.31,8.21-3.31,1.54-.61,1.14-2.96-.54-3l-8.85-.25Z" style="fill: #f2f2f2;"/>
  <path d="M604.74,179.29c-16.82-1.76-33.65-3.46-50.52-4.83-6.7-.68-13.8-.74-20.53-.06-7.86.48-17.1,1.93-24.91,1.46-6.68-.65-13.28-2.21-20.01-2.98-3.34-.55-7.47-.08-10.81.63-4.79.89-10.11,1.98-14.87,2.66-4.56.4-13.11,2.54-15.12-2.55-.66-1.43-.66-3.26-1.42-4.76-.17-.29-.38-.73-1.07-1.27-.3-.22-.82-.56-1.73-.65-.57-.03-.94.05-1.18.12-1.27.39-2.04,1.09-2.96,1.79-4.44,3.6-8.56,7.96-13.29,10.85-.06.03-.11.06-.17.09-.73-1.44-1.12-3.54-1.62-5.17-.47-1.25-.5-2.09-2.02-3.32-.5-.38-1.5-.72-2.35-.59-1.31.24-1.52.54-2.21,1.1-.37.34-.67.72-.97,1.1-3.65,5.19-6.52,11.94-11.24,15.97-.63.46-1.35.85-2.12,1.18.03-.04.07-.07.1-.11,2.55-3.03,4.45-7.15,3.81-11.31-.76-5.19-4.66-10.12-10.12-10.74-13.28-1.21-18.57,14.93-10.57,24.1.77.82,1.65,1.51,2.6,2.1-1.85.91-3.73,1.7-5.57,2.38-11.09,3.9-14.53.91-16.91-5.59,3.73-4.26,7.48-8.64,11.26-13.1.53.03,1.07.07,1.6.1.39.02.75-.23.86-.62.12-.45-.14-.91-.59-1.03-.15-.04-.31-.07-.46-.11,14.42-17.11,28.92-35.18,42.03-51.24,0,0,12.79-15.73,12.79-15.73,12.85-15.87,24.09-32.89,34.9-50.17,7.09-11.68,14.17-23.23,19.78-35.78.51-1.16-.03-2.52-1.19-3.01-1.17-.5-2.53.06-3.01,1.24-11.11,24.4-26.29,47-41.61,68.95-6.67,9.6-17.54,22.62-25.16,31.63-14.69,17.63-29.31,35.35-44.29,52.74-4.55-.99-9.14-1.77-13.8-2.31-.89-.07-1.8-.16-2.73-.23-.47-6.51-.94-13.01-1.37-19.47-2.47-37.7-4.12-82.77-8.99-119.94-1.27-8.15-2.21-16.4-5.47-24.12-1.48-3.05-5.74-.92-4.56,1.96,1.09,2.51,1.89,5.46,2.47,8.26,2.61,12.62,3.65,25.52,4.82,38.37,3.05,35.65,4.76,78.8,7.19,115.21-2.92.64-5.73,1.52-8.63.95-2.52-.52-4.6-1.5-7.41-1.96-1.79-.39-4.28,0-6.01.58-5.54,1.56-10.6,4.14-16.21,4.37-3.31-.34-6.25-2.97-8.52-5.59-1.18-1.46-3.67-1.14-4.41.61-2.72,5.62-7.88,16.02-13.96,17.96-3.2.41-4.21-2.54-3.95-5.64.28-3.8,1.71-7.94,3.3-11.44,1.24-2.85-2.75-4.95-4.39-2.28-.19.29-.39.58-.58.88-.54-1.08-1.65-1.87-3.28-1.75-6.16.88-11.24,4.01-16.09,7.62-3.11,2.58-6.36,5.42-7.35,9.7-.88,3.63,2.01,7.03,5.48,7.99,6.38,1.76,12.64-3.31,17.66-9.42.04,7.55,7.1,12.56,14.1,7.91,5.61-4.04,9.13-9.96,12.17-16.01,2.68,2.39,5.87,4.42,9.65,4.59,6.25-.13,12.09-3.17,17.79-4.9,1.49-.45,2.38-.76,3.93-.52,3.13.47,6.85,2.24,10.26,2,2.39-.04,4.56-.69,6.76-1.21,0,.06,0,.13.01.19.1,1.33.22,2.65.32,3.98-5.74,6.34-10.52,13.36-14.77,20.76-1.99,3.94-6.86,11.66-4.5,16.23.63,1.21,2.17,2.14,3.57,1.99,2.18-.22,3.78-1.6,5.34-2.76,4.57-3.77,8.48-7.88,12.42-12.1,5.62,62.42,13.44,124.81,21.36,186.89.06.46.48.8.95.75.48-.05.83-.47.78-.95-5.98-62.95-12.66-128.41-17.79-192.47,1.17-1.3,2.35-2.62,3.54-3.96.79,1.61,1.79,3.14,3.11,4.51,6.51,7.16,20.67,2.63,30.15-3.56,4.61.54,9.52-.58,12.98-3.11,4.55-3.67,7.35-8.7,10.4-13.5.31,1.09.68,2.17,1.28,3.25,3.53,6.11,9.19,2.15,13.04-1.05,2.89-2.3,5.41-4.79,8.09-7.1,1.69,4.87,6.01,7.79,11.29,7.77,7.29.07,13.8-1.56,20.73-2.94,4.62-.89,9.53-2.48,14.25-1.82,7.61.68,15.16,2.54,22.88,2.64,7.17-.28,15.7-1.53,22.9-2.28,9.74-1.41,20.21-.51,30.08.03,13.5.74,26.99,1.64,40.49,2.46.38.02.72-.26.76-.65.04-.4-.25-.75-.64-.8ZM271.81,182.38c-2.49,2.54-5.11,5.11-8.36,6.1-1.4.39-2.41.08-3.24-.68,0-.02,0-.06.02-.1,2-4.77,11.36-10.45,16.89-11.73-1.68,2.24-3.45,4.41-5.31,6.41ZM365.09,184.83c-.35-1.26-.72-2.57-1.14-3.93-.68-2.23-1.56-3.58-2.56-4.27,3.39.22,6.79.48,10.22.73-2.16,2.5-4.34,4.99-6.52,7.47ZM357.77,176.43s-.08.03-.12.05c0-.02,0-.04,0-.05.04,0,.08,0,.13,0ZM335.86,214.59s0,0,0,0h0ZM352.42,199.05c-2.28,2.47-4.58,4.91-6.93,7.28-2.43,2.32-4.74,4.84-7.37,6.79,2-6.31,8.62-16.93,14.57-24.33.25,3.03.52,6.06.78,9.09-.35.39-.7.78-1.05,1.17ZM358.82,191.92c-.24-3.03-.48-6.06-.71-9.09.17-.15.33-.29.49-.43.88,2.33,1.5,4.82,2.22,7.28-.66.75-1.34,1.48-2,2.23ZM390.52,188.5c-4.58-5.04-3.12-14.83,4.36-15.99,5.5-.93,9.08,5.76,6.95,10.45-1.52,3.18-3.99,5.74-6.89,7.85-1.73-.4-3.29-1.16-4.42-2.31ZM441.13,171.62s0-.03,0-.02c0,0,0,.02,0,.02Z" style="fill: #f2f2f2;"/>
</svg>