<svg xmlns="http://www.w3.org/2000/svg" version="1.1" xmlns:xlink="http://www.w3.org/1999/xlink" xmlns:svgjs="http://svgjs.dev/svgjs" width="1000" height="1000"><g clip-path="url(#SvgjsClipPath1143)"><rect width="1000" height="1000" fill="#f2f2f2"></rect><g transform="matrix(0.44389697151291185,0,0,0.44389697151291185,100,239.70991332911632)"><svg xmlns="http://www.w3.org/2000/svg" version="1.1" xmlns:xlink="http://www.w3.org/1999/xlink" xmlns:svgjs="http://svgjs.dev/svgjs" width="1802.22" height="1172.75"><svg id="Layer_2" data-name="Layer 2" xmlns="http://www.w3.org/2000/svg" width="1802.22" height="1172.75" viewBox="0 0 1802.22 1172.75">
  <g id="Layer_2-2" data-name="Layer 2">
    <g>
      <polygon points="789.62 638.79 789.63 638.78 789.62 638.79 789.62 638.79" style="fill: #0E0C0A; stroke-width: 0px;"></polygon>
      <path d="M1302.69,673.2l235.96-235.85h-286.15c-9.67,0-19.33,3.69-26.71,11.06l-589.43,589.15-387.9-387.71h514.44c10.43,0,19.87-4.23,26.71-11.06l.12-.12s-.07.08-.11.11l213.38-213.38c6.84-6.84,11.06-16.28,11.06-26.71V0h-213.4v436.46H126.16c-15.56,0-28.91,9.41-34.7,22.85h0s-.01.03-.01.03c-.06.15-.12.3-.19.45l-.13.31s.01-.03.02-.05L2.87,673.14c-.06.15-.12.3-.18.45v.03s-.01,0-.01,0c-5.41,13.59-2.63,29.69,8.38,40.69l447.72,447.38c7.38,7.38,17.04,11.06,26.71,11.06h.17c-.05,0-.1,0-.16,0h301.77c9.67,0,19.33-3.69,26.71-11.06l337.79-337.63,337.61,337.63c7.38,7.37,17.04,11.06,26.71,11.06h286.14l-499.53-499.55Z" style="fill: #0E0C0A; stroke-width: 0px;"></path>
      <path d="M485.48,1172.75s.01,0,.02,0h-.02Z" style="fill: #0E0C0A; stroke-width: 0px;"></path>
    </g>
  </g>
</svg></svg></g></g><defs><clipPath id="SvgjsClipPath1143"><rect width="1000" height="1000" x="0" y="0" rx="500" ry="500"></rect></clipPath></defs></svg>