<svg xmlns="http://www.w3.org/2000/svg" width="512" height="512" viewBox="0 0 512 512">
<g>
<polygon points="279.3,258.2 267.0,268.0 258.7,286.8 240.0,276.2 239.8,254.7 235.7,240.0 259.1,230.3 275.7,233.1" fill="none" stroke="white" stroke-width="2.45" stroke-linejoin="round"/>
<polyline points="279.2,255.2 346.7,257.9 436.1,276.3 584.1,289.4" fill="none" stroke="white" stroke-width="2.36" stroke-linecap="round" stroke-linejoin="round" opacity="0.83"/>
<polyline points="436.1,276.3 483.7,263.2" fill="none" stroke="white" stroke-width="1.45" stroke-linecap="round" stroke-linejoin="round" opacity="0.79"/>
<polyline points="278.2,264.5 357.6,311.3 411.6,323.9 473.4,334.2 509.1,326.7 574.9,319.8" fill="none" stroke="white" stroke-width="2.06" stroke-linecap="round" stroke-linejoin="round" opacity="0.95"/>
<polyline points="509.1,326.7 514.8,320.2 521.4,311.0 531.9,306.3" fill="none" stroke="white" stroke-width="0.87" stroke-linecap="round" stroke-linejoin="round" opacity="0.50"/>
<polyline points="509.1,326.7 511.5,332.3 517.0,338.9 522.2,343.4" fill="none" stroke="white" stroke-width="1.13" stroke-linecap="round" stroke-linejoin="round" opacity="0.62"/>
<polyline points="357.6,311.3 390.1,358.6" fill="none" stroke="white" stroke-width="1.21" stroke-linecap="round" stroke-linejoin="round" opacity="0.56"/>
<polyline points="275.1,273.3 365.8,345.5 432.2,395.9 462.2,430.3 455.7,469.2 464.0,475.9 486.5,515.8" fill="none" stroke="white" stroke-width="1.35" stroke-linecap="round" stroke-linejoin="round" opacity="0.89"/>
<polyline points="432.2,395.9 431.7,442.1" fill="none" stroke="white" stroke-width="0.65" stroke-linecap="round" stroke-linejoin="round" opacity="0.55"/>
<polyline points="464.0,475.9 468.8,471.7 474.6,472.7 482.8,463.1" fill="none" stroke="white" stroke-width="1.48" stroke-linecap="round" stroke-linejoin="round" opacity="0.80"/>
<polyline points="263.2,280.8 289.6,351.1 336.9,424.6 352.7,478.9 363.0,504.8 420.6,560.8" fill="none" stroke="white" stroke-width="2.84" stroke-linecap="round" stroke-linejoin="round" opacity="0.95"/>
<polyline points="352.7,478.9 340.6,497.7 329.7,530.7 329.0,549.2" fill="none" stroke="white" stroke-width="1.18" stroke-linecap="round" stroke-linejoin="round" opacity="0.49"/>
<polyline points="289.6,351.1 279.1,359.2 274.5,369.6" fill="none" stroke="white" stroke-width="1.09" stroke-linecap="round" stroke-linejoin="round" opacity="0.63"/>
<polyline points="336.9,424.6 348.7,429.5 363.5,424.3" fill="none" stroke="white" stroke-width="1.06" stroke-linecap="round" stroke-linejoin="round" opacity="0.88"/>
<polyline points="248.7,276.8 234.7,294.9 193.9,401.3 192.1,426.1 163.3,509.3 143.4,593.1" fill="none" stroke="white" stroke-width="2.71" stroke-linecap="round" stroke-linejoin="round" opacity="0.86"/>
<polyline points="163.3,509.3 119.2,527.8 69.8,533.1" fill="none" stroke="white" stroke-width="0.63" stroke-linecap="round" stroke-linejoin="round" opacity="0.49"/>
<polyline points="163.3,509.3 156.2,532.7 143.8,563.0 124.4,589.1" fill="none" stroke="white" stroke-width="1.44" stroke-linecap="round" stroke-linejoin="round" opacity="0.93"/>
<polyline points="234.7,294.9 235.4,310.9 231.3,327.8 240.7,340.3" fill="none" stroke="white" stroke-width="0.96" stroke-linecap="round" stroke-linejoin="round" opacity="0.60"/>
<polyline points="241.1,274.0 82.6,461.8 50.8,445.2 15.9,489.1" fill="none" stroke="white" stroke-width="1.03" stroke-linecap="round" stroke-linejoin="round" opacity="0.82"/>
<polyline points="50.8,445.2 44.0,431.2 33.0,426.4 26.2,409.1" fill="none" stroke="white" stroke-width="1.31" stroke-linecap="round" stroke-linejoin="round" opacity="0.62"/>
<polyline points="82.6,461.8 87.0,505.0" fill="none" stroke="white" stroke-width="1.24" stroke-linecap="round" stroke-linejoin="round" opacity="0.76"/>
<polyline points="237.3,267.5 50.0,401.7 9.6,407.3 7.9,442.0 -8.6,420.8" fill="none" stroke="white" stroke-width="1.68" stroke-linecap="round" stroke-linejoin="round" opacity="0.90"/>
<polyline points="50.0,401.7 38.8,400.3 34.1,394.4 26.1,387.8" fill="none" stroke="white" stroke-width="1.47" stroke-linecap="round" stroke-linejoin="round" opacity="0.80"/>
<polyline points="231.6,260.0 100.9,268.1 13.0,284.2 -29.0,277.0" fill="none" stroke="white" stroke-width="2.69" stroke-linecap="round" stroke-linejoin="round" opacity="0.87"/>
<polyline points="100.9,268.1 89.7,260.8 84.1,254.7 72.6,243.8" fill="none" stroke="white" stroke-width="0.60" stroke-linecap="round" stroke-linejoin="round" opacity="0.51"/>
<polyline points="13.0,284.2 9.6,274.8 0.2,269.2 -2.9,260.8" fill="none" stroke="white" stroke-width="1.07" stroke-linecap="round" stroke-linejoin="round" opacity="0.70"/>
<polyline points="100.9,268.1 100.8,262.5 92.9,255.8 84.2,251.1" fill="none" stroke="white" stroke-width="0.94" stroke-linecap="round" stroke-linejoin="round" opacity="0.80"/>
<polyline points="232.1,248.5 172.5,223.9 65.9,183.7 25.0,161.3 4.4,114.8 -1.6,106.2" fill="none" stroke="white" stroke-width="1.98" stroke-linecap="round" stroke-linejoin="round" opacity="0.99"/>
<polyline points="65.9,183.7 22.7,191.2" fill="none" stroke="white" stroke-width="0.62" stroke-linecap="round" stroke-linejoin="round" opacity="0.80"/>
<polyline points="25.0,161.3 30.7,139.4 25.0,128.1 22.8,109.0" fill="none" stroke="white" stroke-width="1.05" stroke-linecap="round" stroke-linejoin="round" opacity="0.82"/>
<polyline points="25.0,161.3 36.2,97.9" fill="none" stroke="white" stroke-width="1.27" stroke-linecap="round" stroke-linejoin="round" opacity="0.62"/>
<polyline points="246.8,238.9 127.6,16.5 89.1,21.5 99.7,-43.1" fill="none" stroke="white" stroke-width="3.16" stroke-linecap="round" stroke-linejoin="round" opacity="0.91"/>
<polyline points="89.1,21.5 75.8,7.9" fill="none" stroke="white" stroke-width="1.29" stroke-linecap="round" stroke-linejoin="round" opacity="0.65"/>
<polyline points="127.6,16.5 155.7,-32.1" fill="none" stroke="white" stroke-width="0.87" stroke-linecap="round" stroke-linejoin="round" opacity="0.76"/>
<polyline points="252.7,230.7 236.0,146.8 203.9,9.3 180.2,-19.3" fill="none" stroke="white" stroke-width="1.92" stroke-linecap="round" stroke-linejoin="round" opacity="0.99"/>
<polyline points="236.0,146.8 215.6,140.7 195.8,116.4 177.9,95.3" fill="none" stroke="white" stroke-width="0.65" stroke-linecap="round" stroke-linejoin="round" opacity="0.64"/>
<polyline points="262.6,231.2 291.6,137.5 344.7,33.6 407.3,-54.6" fill="none" stroke="white" stroke-width="1.39" stroke-linecap="round" stroke-linejoin="round" opacity="0.92"/>
<polyline points="291.6,137.5 324.8,128.5" fill="none" stroke="white" stroke-width="1.14" stroke-linecap="round" stroke-linejoin="round" opacity="0.80"/>
<polyline points="344.7,33.6 344.8,-0.2 336.4,-23.3 337.7,-50.7" fill="none" stroke="white" stroke-width="1.21" stroke-linecap="round" stroke-linejoin="round" opacity="0.91"/>
<polyline points="268.8,240.5 408.0,39.5 457.1,37.7 477.9,33.1 483.0,38.1 500.9,58.5 531.8,39.8" fill="none" stroke="white" stroke-width="1.13" stroke-linecap="round" stroke-linejoin="round" opacity="0.82"/>
<polyline points="408.0,39.5 434.1,33.0 455.7,34.5 475.0,23.2" fill="none" stroke="white" stroke-width="1.14" stroke-linecap="round" stroke-linejoin="round" opacity="0.79"/>
<polyline points="275.6,249.4 368.9,213.6 395.0,202.1 427.4,186.7 467.3,128.7" fill="none" stroke="white" stroke-width="1.80" stroke-linecap="round" stroke-linejoin="round" opacity="0.96"/>
<polyline points="395.0,202.1 419.4,209.6 441.4,227.2" fill="none" stroke="white" stroke-width="0.76" stroke-linecap="round" stroke-linejoin="round" opacity="0.70"/>
<polyline points="327.1,274.8 315.1,295.6 191.0,232.4 213.7,196.6 301.3,200.6 322.9,233.1" fill="none" stroke="white" stroke-width="1.71" stroke-linecap="round" stroke-linejoin="round" opacity="0.67"/>
<polyline points="397.2,259.1 392.3,302.8 213.5,394.0 131.5,332.6 342.2,149.2" fill="none" stroke="white" stroke-width="1.58" stroke-linecap="round" stroke-linejoin="round" opacity="0.79"/>
</g>
</svg>