<svg xmlns="http://www.w3.org/2000/svg" width="512" height="512" viewBox="0 0 512 512">
<g>
<polygon points="278.4,258.2 268.9,262.9 267.7,276.3 253.8,277.5 245.3,271.9 240.6,265.2 235.1,257.7 241.4,247.4 248.2,240.1 257.4,235.4 264.7,236.5 276.1,242.4" fill="none" stroke="white" stroke-width="2.31" stroke-linejoin="round"/>
<polyline points="281.7,257.5 410.6,255.4 542.0,280.9" fill="none" stroke="white" stroke-width="3.19" stroke-linecap="round" stroke-linejoin="round" opacity="0.90"/>
<polyline points="410.6,255.4 435.6,247.6 457.0,252.8 470.6,241.4" fill="none" stroke="white" stroke-width="1.39" stroke-linecap="round" stroke-linejoin="round" opacity="0.67"/>
<polyline points="271.4,266.2 321.9,289.8 414.7,375.0 467.4,403.8 522.6,443.5" fill="none" stroke="white" stroke-width="0.97" stroke-linecap="round" stroke-linejoin="round" opacity="0.86"/>
<polyline points="321.9,289.8 352.9,265.7 375.3,230.6" fill="none" stroke="white" stroke-width="0.52" stroke-linecap="round" stroke-linejoin="round" opacity="0.52"/>
<polyline points="271.2,273.6 421.1,442.1 455.9,445.9 478.6,459.2 482.6,447.9 497.9,472.3" fill="none" stroke="white" stroke-width="0.96" stroke-linecap="round" stroke-linejoin="round" opacity="0.89"/>
<polyline points="478.6,459.2 511.9,455.8 543.6,469.5" fill="none" stroke="white" stroke-width="1.48" stroke-linecap="round" stroke-linejoin="round" opacity="0.91"/>
<polyline points="421.1,442.1 447.2,454.1 477.1,450.2" fill="none" stroke="white" stroke-width="0.62" stroke-linecap="round" stroke-linejoin="round" opacity="0.49"/>
<polyline points="261.4,275.8 334.7,459.1 353.6,492.4 379.6,497.6 385.9,520.2" fill="none" stroke="white" stroke-width="0.74" stroke-linecap="round" stroke-linejoin="round" opacity="0.84"/>
<polyline points="379.6,497.6 431.3,496.8" fill="none" stroke="white" stroke-width="0.98" stroke-linecap="round" stroke-linejoin="round" opacity="0.51"/>
<polyline points="334.7,459.1 349.3,469.9 363.4,481.6 382.0,481.7" fill="none" stroke="white" stroke-width="1.06" stroke-linecap="round" stroke-linejoin="round" opacity="0.53"/>
<polyline points="379.6,497.6 386.9,514.6 398.4,531.5" fill="none" stroke="white" stroke-width="1.26" stroke-linecap="round" stroke-linejoin="round" opacity="0.83"/>
<polyline points="252.0,276.1 244.0,314.0 246.8,414.3 227.2,536.8" fill="none" stroke="white" stroke-width="1.73" stroke-linecap="round" stroke-linejoin="round" opacity="0.85"/>
<polyline points="246.8,414.3 230.4,438.7 217.1,467.1" fill="none" stroke="white" stroke-width="0.89" stroke-linecap="round" stroke-linejoin="round" opacity="0.50"/>
<polyline points="243.3,273.0 125.3,408.6 97.6,481.4 104.9,504.2 59.9,513.2" fill="none" stroke="white" stroke-width="2.84" stroke-linecap="round" stroke-linejoin="round" opacity="0.95"/>
<polyline points="97.6,481.4 46.2,501.5" fill="none" stroke="white" stroke-width="1.24" stroke-linecap="round" stroke-linejoin="round" opacity="0.64"/>
<polyline points="104.9,504.2 102.0,519.4 94.0,535.7 86.0,553.5" fill="none" stroke="white" stroke-width="1.26" stroke-linecap="round" stroke-linejoin="round" opacity="0.91"/>
<polyline points="236.7,263.9 35.8,373.9 32.8,402.8 -35.9,425.8" fill="none" stroke="white" stroke-width="0.91" stroke-linecap="round" stroke-linejoin="round" opacity="0.81"/>
<polyline points="32.8,402.8 49.7,415.6 69.2,425.7" fill="none" stroke="white" stroke-width="0.68" stroke-linecap="round" stroke-linejoin="round" opacity="0.45"/>
<polyline points="238.1,259.2 151.6,271.7 -1.8,275.9" fill="none" stroke="white" stroke-width="3.41" stroke-linecap="round" stroke-linejoin="round" opacity="0.87"/>
<polyline points="151.6,271.7 134.9,265.8 121.5,251.8" fill="none" stroke="white" stroke-width="1.32" stroke-linecap="round" stroke-linejoin="round" opacity="0.84"/>
<polyline points="151.6,271.7 136.7,270.1 115.9,256.8 106.2,254.0" fill="none" stroke="white" stroke-width="1.12" stroke-linecap="round" stroke-linejoin="round" opacity="0.76"/>
<polyline points="151.6,271.7 138.3,287.7 125.9,305.0 109.5,314.3" fill="none" stroke="white" stroke-width="1.31" stroke-linecap="round" stroke-linejoin="round" opacity="0.54"/>
<polyline points="236.5,246.9 25.5,137.7 9.4,123.9 -7.7,115.7" fill="none" stroke="white" stroke-width="1.85" stroke-linecap="round" stroke-linejoin="round" opacity="0.81"/>
<polyline points="9.4,123.9 4.5,91.7" fill="none" stroke="white" stroke-width="1.01" stroke-linecap="round" stroke-linejoin="round" opacity="0.58"/>
<polyline points="240.7,236.3 200.4,182.9 142.2,114.7 53.8,10.0" fill="none" stroke="white" stroke-width="3.59" stroke-linecap="round" stroke-linejoin="round" opacity="0.80"/>
<polyline points="200.4,182.9 109.8,172.9" fill="none" stroke="white" stroke-width="0.65" stroke-linecap="round" stroke-linejoin="round" opacity="0.46"/>
<polyline points="200.4,182.9 171.3,186.5 145.5,178.8" fill="none" stroke="white" stroke-width="1.23" stroke-linecap="round" stroke-linejoin="round" opacity="0.48"/>
<polyline points="250.5,236.8 212.0,80.7 206.4,59.9 200.5,17.6" fill="none" stroke="white" stroke-width="1.76" stroke-linecap="round" stroke-linejoin="round" opacity="0.89"/>
<polyline points="206.4,59.9 238.6,22.1" fill="none" stroke="white" stroke-width="1.36" stroke-linecap="round" stroke-linejoin="round" opacity="0.47"/>
<polyline points="257.1,235.4 271.2,70.5 284.6,7.4 257.7,-15.5" fill="none" stroke="white" stroke-width="1.46" stroke-linecap="round" stroke-linejoin="round" opacity="0.97"/>
<polyline points="284.6,7.4 271.3,-8.0 260.5,-28.4" fill="none" stroke="white" stroke-width="1.21" stroke-linecap="round" stroke-linejoin="round" opacity="0.54"/>
<polyline points="284.6,7.4 238.1,-38.1" fill="none" stroke="white" stroke-width="0.63" stroke-linecap="round" stroke-linejoin="round" opacity="0.55"/>
<polyline points="271.2,70.5 284.0,51.2" fill="none" stroke="white" stroke-width="0.61" stroke-linecap="round" stroke-linejoin="round" opacity="0.86"/>
<polyline points="272.3,238.4 316.5,179.8 444.8,79.8 433.3,48.2 453.0,50.3 479.9,-7.2" fill="none" stroke="white" stroke-width="2.86" stroke-linecap="round" stroke-linejoin="round" opacity="0.93"/>
<polyline points="453.0,50.3 500.0,112.7" fill="none" stroke="white" stroke-width="0.94" stroke-linecap="round" stroke-linejoin="round" opacity="0.75"/>
<polyline points="272.6,244.0 321.4,214.8 446.3,128.7 472.2,88.8 498.4,24.7" fill="none" stroke="white" stroke-width="2.10" stroke-linecap="round" stroke-linejoin="round" opacity="0.88"/>
<polyline points="472.2,88.8 547.9,85.1" fill="none" stroke="white" stroke-width="1.28" stroke-linecap="round" stroke-linejoin="round" opacity="0.70"/>
<polyline points="364.1,272.5 294.4,356.9 240.4,367.1 193.6,346.1 163.8,200.0 216.5,148.1" fill="none" stroke="white" stroke-width="1.26" stroke-linecap="round" stroke-linejoin="round" opacity="0.79"/>
<polyline points="367.7,254.5 343.6,325.2 290.4,361.6 237.6,366.8 197.1,343.5 146.9,264.6 198.9,162.8" fill="none" stroke="white" stroke-width="1.57" stroke-linecap="round" stroke-linejoin="round" opacity="0.54"/>
</g>
</svg>