<svg xmlns="http://www.w3.org/2000/svg" width="512" height="512" viewBox="0 0 512 512">
<g>
<polygon points="270.6,255.7 276.5,270.5 266.1,277.2 255.4,275.1 244.8,270.9 233.2,262.0 233.2,249.2 246.6,246.1 252.7,234.6 261.7,245.0 268.4,246.9" fill="none" stroke="white" stroke-width="2.11" stroke-linejoin="round"/>
<polyline points="277.3,254.2 381.2,238.6 512.0,253.6 540.5,241.5" fill="none" stroke="white" stroke-width="0.96" stroke-linecap="round" stroke-linejoin="round" opacity="0.98"/>
<polyline points="381.2,238.6 388.2,228.9 389.0,224.2 388.3,217.2" fill="none" stroke="white" stroke-width="0.63" stroke-linecap="round" stroke-linejoin="round" opacity="0.54"/>
<polyline points="512.0,253.6 573.0,218.0" fill="none" stroke="white" stroke-width="0.53" stroke-linecap="round" stroke-linejoin="round" opacity="0.50"/>
<polyline points="275.0,261.0 501.9,331.3 523.9,340.6" fill="none" stroke="white" stroke-width="2.07" stroke-linecap="round" stroke-linejoin="round" opacity="0.99"/>
<polyline points="501.9,331.3 526.4,410.7" fill="none" stroke="white" stroke-width="0.72" stroke-linecap="round" stroke-linejoin="round" opacity="0.68"/>
<polyline points="501.9,331.3 510.1,323.5 522.3,317.4" fill="none" stroke="white" stroke-width="0.89" stroke-linecap="round" stroke-linejoin="round" opacity="0.88"/>
<polyline points="501.9,331.3 509.0,339.7 520.2,343.8 526.5,353.4" fill="none" stroke="white" stroke-width="1.11" stroke-linecap="round" stroke-linejoin="round" opacity="0.94"/>
<polyline points="267.6,273.3 331.2,357.4 390.4,444.4 401.7,492.7 392.8,500.2 434.3,523.7" fill="none" stroke="white" stroke-width="1.46" stroke-linecap="round" stroke-linejoin="round" opacity="0.96"/>
<polyline points="401.7,492.7 422.0,516.5 445.9,535.5 459.8,555.6" fill="none" stroke="white" stroke-width="0.63" stroke-linecap="round" stroke-linejoin="round" opacity="0.59"/>
<polyline points="392.8,500.2 383.0,502.2 367.5,505.5 358.7,500.9" fill="none" stroke="white" stroke-width="1.04" stroke-linecap="round" stroke-linejoin="round" opacity="0.62"/>
<polyline points="259.9,277.3 279.6,421.9 271.8,466.4 289.7,532.9" fill="none" stroke="white" stroke-width="1.29" stroke-linecap="round" stroke-linejoin="round" opacity="0.84"/>
<polyline points="279.6,421.9 274.8,450.2 276.4,470.6 297.5,489.8" fill="none" stroke="white" stroke-width="1.34" stroke-linecap="round" stroke-linejoin="round" opacity="0.70"/>
<polyline points="279.6,421.9 240.3,474.5" fill="none" stroke="white" stroke-width="1.21" stroke-linecap="round" stroke-linejoin="round" opacity="0.57"/>
<polyline points="279.6,421.9 222.6,471.5" fill="none" stroke="white" stroke-width="1.15" stroke-linecap="round" stroke-linejoin="round" opacity="0.46"/>
<polyline points="252.9,271.1 228.1,325.9 187.7,432.2 174.1,512.1" fill="none" stroke="white" stroke-width="1.33" stroke-linecap="round" stroke-linejoin="round" opacity="0.87"/>
<polyline points="187.7,432.2 205.4,449.4 234.4,473.0 249.1,508.0" fill="none" stroke="white" stroke-width="1.10" stroke-linecap="round" stroke-linejoin="round" opacity="0.59"/>
<polyline points="248.4,276.5 221.3,382.7 203.3,398.7 183.7,448.8" fill="none" stroke="white" stroke-width="1.68" stroke-linecap="round" stroke-linejoin="round" opacity="0.90"/>
<polyline points="221.3,382.7 179.4,381.4" fill="none" stroke="white" stroke-width="1.27" stroke-linecap="round" stroke-linejoin="round" opacity="0.52"/>
<polyline points="203.3,398.7 189.6,394.7 178.0,391.5" fill="none" stroke="white" stroke-width="0.76" stroke-linecap="round" stroke-linejoin="round" opacity="0.51"/>
<polyline points="203.3,398.7 160.4,398.9" fill="none" stroke="white" stroke-width="0.94" stroke-linecap="round" stroke-linejoin="round" opacity="0.47"/>
<polyline points="240.6,269.3 103.5,415.8 71.6,458.7 67.0,469.8 70.2,493.2 49.1,517.0" fill="none" stroke="white" stroke-width="1.65" stroke-linecap="round" stroke-linejoin="round" opacity="0.84"/>
<polyline points="70.2,493.2 98.7,509.9 126.5,524.9" fill="none" stroke="white" stroke-width="1.25" stroke-linecap="round" stroke-linejoin="round" opacity="0.77"/>
<polyline points="67.0,469.8 48.0,471.0 25.0,483.4 4.2,502.8" fill="none" stroke="white" stroke-width="1.29" stroke-linecap="round" stroke-linejoin="round" opacity="0.85"/>
<polyline points="67.0,469.8 -18.5,482.3" fill="none" stroke="white" stroke-width="1.43" stroke-linecap="round" stroke-linejoin="round" opacity="0.65"/>
<polyline points="237.2,262.4 80.7,313.0 31.8,364.9 -15.9,402.1" fill="none" stroke="white" stroke-width="1.71" stroke-linecap="round" stroke-linejoin="round" opacity="0.97"/>
<polyline points="80.7,313.0 63.7,308.8 45.9,311.4 31.8,308.2" fill="none" stroke="white" stroke-width="0.91" stroke-linecap="round" stroke-linejoin="round" opacity="0.93"/>
<polyline points="236.7,248.8 -13.4,190.4" fill="none" stroke="white" stroke-width="1.49" stroke-linecap="round" stroke-linejoin="round" opacity="0.95"/>
<polyline points="-13.4,190.4 -21.9,169.7 -32.6,162.5" fill="none" stroke="white" stroke-width="0.52" stroke-linecap="round" stroke-linejoin="round" opacity="0.65"/>
<polyline points="239.2,247.0 54.2,124.0 29.3,98.4 5.5,118.1 19.5,110.4 -13.2,109.0" fill="none" stroke="white" stroke-width="1.31" stroke-linecap="round" stroke-linejoin="round" opacity="0.81"/>
<polyline points="54.2,124.0 18.2,136.6" fill="none" stroke="white" stroke-width="1.39" stroke-linecap="round" stroke-linejoin="round" opacity="0.56"/>
<polyline points="244.0,240.4 190.7,180.8 138.7,88.8 150.4,51.4 108.9,9.0" fill="none" stroke="white" stroke-width="1.31" stroke-linecap="round" stroke-linejoin="round" opacity="0.82"/>
<polyline points="138.7,88.8 138.3,74.3 131.2,69.7 123.9,56.8" fill="none" stroke="white" stroke-width="1.31" stroke-linecap="round" stroke-linejoin="round" opacity="0.65"/>
<polyline points="138.7,88.8 59.7,80.6" fill="none" stroke="white" stroke-width="1.44" stroke-linecap="round" stroke-linejoin="round" opacity="0.69"/>
<polyline points="252.3,238.2 217.4,89.9 198.1,-11.0" fill="none" stroke="white" stroke-width="1.37" stroke-linecap="round" stroke-linejoin="round" opacity="0.87"/>
<polyline points="217.4,89.9 177.7,73.5" fill="none" stroke="white" stroke-width="0.65" stroke-linecap="round" stroke-linejoin="round" opacity="0.92"/>
<polyline points="217.4,89.9 142.1,29.2" fill="none" stroke="white" stroke-width="1.17" stroke-linecap="round" stroke-linejoin="round" opacity="0.61"/>
<polyline points="217.4,89.9 189.8,78.3" fill="none" stroke="white" stroke-width="0.79" stroke-linecap="round" stroke-linejoin="round" opacity="0.74"/>
<polyline points="264.9,235.9 331.7,129.1 329.3,98.2 318.8,40.2 304.3,-23.3" fill="none" stroke="white" stroke-width="1.87" stroke-linecap="round" stroke-linejoin="round" opacity="0.96"/>
<polyline points="318.8,40.2 309.6,21.0 296.9,1.1 293.8,-18.1" fill="none" stroke="white" stroke-width="1.21" stroke-linecap="round" stroke-linejoin="round" opacity="0.60"/>
<polyline points="331.7,129.1 317.6,89.1" fill="none" stroke="white" stroke-width="0.74" stroke-linecap="round" stroke-linejoin="round" opacity="0.73"/>
<polyline points="267.8,239.6 343.4,130.1 382.1,73.7 393.4,43.7 424.6,42.5 463.8,32.9 484.3,9.3" fill="none" stroke="white" stroke-width="1.92" stroke-linecap="round" stroke-linejoin="round" opacity="0.99"/>
<polyline points="393.4,43.7 395.8,33.7 388.9,15.6 380.1,1.6" fill="none" stroke="white" stroke-width="1.37" stroke-linecap="round" stroke-linejoin="round" opacity="0.94"/>
<polyline points="273.3,251.7 367.0,231.2 420.5,207.9 477.4,212.9" fill="none" stroke="white" stroke-width="0.93" stroke-linecap="round" stroke-linejoin="round" opacity="0.87"/>
<polyline points="367.0,231.2 388.2,247.0 395.9,265.6 411.3,278.3" fill="none" stroke="white" stroke-width="1.50" stroke-linecap="round" stroke-linejoin="round" opacity="0.54"/>
<polyline points="420.5,207.9 446.8,167.8 471.2,151.4" fill="none" stroke="white" stroke-width="0.93" stroke-linecap="round" stroke-linejoin="round" opacity="0.89"/>
<polyline points="367.0,231.2 400.1,238.7" fill="none" stroke="white" stroke-width="1.42" stroke-linecap="round" stroke-linejoin="round" opacity="0.93"/>
<polyline points="341.5,282.5 308.1,326.0 232.2,339.4 173.6,211.6 205.3,180.7 302.6,183.5 344.3,226.3" fill="none" stroke="white" stroke-width="0.86" stroke-linecap="round" stroke-linejoin="round" opacity="0.71"/>
<polyline points="379.1,245.6 334.7,361.7 212.2,376.9 173.6,153.9 310.1,137.7 387.9,235.3" fill="none" stroke="white" stroke-width="1.15" stroke-linecap="round" stroke-linejoin="round" opacity="0.74"/>
</g>
</svg>