<svg xmlns="http://www.w3.org/2000/svg" width="512" height="512" viewBox="0 0 512 512">
<g>
<polygon points="264.8,256.5 265.5,265.8 255.7,272.9 248.1,265.3 247.2,255.8 245.5,245.3 254.3,240.7 262.8,249.8" fill="none" stroke="white" stroke-width="1.88" stroke-linejoin="round"/>
<polyline points="268.5,257.5 358.7,266.8 412.3,310.2 493.0,334.6 505.0,384.1 553.5,368.0" fill="none" stroke="white" stroke-width="0.89" stroke-linecap="round" stroke-linejoin="round" opacity="0.82"/>
<polyline points="358.7,266.8 365.6,343.3" fill="none" stroke="white" stroke-width="0.50" stroke-linecap="round" stroke-linejoin="round" opacity="0.61"/>
<polyline points="412.3,310.2 418.7,335.7 430.1,350.4 455.5,359.6" fill="none" stroke="white" stroke-width="0.68" stroke-linecap="round" stroke-linejoin="round" opacity="0.74"/>
<polyline points="266.4,262.9 320.3,297.3 491.2,374.4 504.9,403.6" fill="none" stroke="white" stroke-width="3.36" stroke-linecap="round" stroke-linejoin="round" opacity="0.95"/>
<polyline points="491.2,374.4 578.1,376.5" fill="none" stroke="white" stroke-width="1.15" stroke-linecap="round" stroke-linejoin="round" opacity="0.89"/>
<polyline points="320.3,297.3 326.5,375.5" fill="none" stroke="white" stroke-width="0.78" stroke-linecap="round" stroke-linejoin="round" opacity="0.53"/>
<polyline points="262.5,265.4 334.3,402.9 371.4,493.1 355.5,526.1" fill="none" stroke="white" stroke-width="1.43" stroke-linecap="round" stroke-linejoin="round" opacity="0.85"/>
<polyline points="334.3,402.9 332.2,411.6 328.3,418.0 321.3,423.0" fill="none" stroke="white" stroke-width="1.49" stroke-linecap="round" stroke-linejoin="round" opacity="0.69"/>
<polyline points="371.4,493.1 325.4,542.1" fill="none" stroke="white" stroke-width="0.64" stroke-linecap="round" stroke-linejoin="round" opacity="0.82"/>
<polyline points="371.4,493.1 367.7,496.7 357.4,506.4 353.9,517.4" fill="none" stroke="white" stroke-width="0.51" stroke-linecap="round" stroke-linejoin="round" opacity="0.49"/>
<polyline points="254.1,268.2 245.7,308.1 225.2,437.8 199.3,513.4" fill="none" stroke="white" stroke-width="1.37" stroke-linecap="round" stroke-linejoin="round" opacity="0.96"/>
<polyline points="245.7,308.1 253.0,356.2 245.3,395.1" fill="none" stroke="white" stroke-width="0.88" stroke-linecap="round" stroke-linejoin="round" opacity="0.90"/>
<polyline points="250.9,267.1 211.9,376.0 191.4,443.8 195.2,488.5 151.0,535.4" fill="none" stroke="white" stroke-width="1.40" stroke-linecap="round" stroke-linejoin="round" opacity="0.92"/>
<polyline points="211.9,376.0 126.8,378.4" fill="none" stroke="white" stroke-width="0.98" stroke-linecap="round" stroke-linejoin="round" opacity="0.50"/>
<polyline points="195.2,488.5 186.5,531.9" fill="none" stroke="white" stroke-width="0.55" stroke-linecap="round" stroke-linejoin="round" opacity="0.93"/>
<polyline points="244.6,263.5 147.3,341.8 95.6,367.1 39.3,365.6 -11.4,407.0" fill="none" stroke="white" stroke-width="3.10" stroke-linecap="round" stroke-linejoin="round" opacity="0.91"/>
<polyline points="147.3,341.8 129.5,340.0 106.2,335.6" fill="none" stroke="white" stroke-width="0.53" stroke-linecap="round" stroke-linejoin="round" opacity="0.66"/>
<polyline points="95.6,367.1 88.0,389.7 80.2,408.0 63.7,427.7" fill="none" stroke="white" stroke-width="1.37" stroke-linecap="round" stroke-linejoin="round" opacity="0.90"/>
<polyline points="39.3,365.6 1.0,417.5" fill="none" stroke="white" stroke-width="0.50" stroke-linecap="round" stroke-linejoin="round" opacity="0.68"/>
<polyline points="242.2,257.7 82.4,301.1 15.4,292.1 -68.7,293.6" fill="none" stroke="white" stroke-width="2.32" stroke-linecap="round" stroke-linejoin="round" opacity="0.97"/>
<polyline points="82.4,301.1 14.2,259.4" fill="none" stroke="white" stroke-width="0.55" stroke-linecap="round" stroke-linejoin="round" opacity="0.63"/>
<polyline points="82.4,301.1 -1.6,268.0" fill="none" stroke="white" stroke-width="1.48" stroke-linecap="round" stroke-linejoin="round" opacity="0.46"/>
<polyline points="244.8,249.0 202.4,230.1 31.7,119.6 -18.1,90.4" fill="none" stroke="white" stroke-width="1.04" stroke-linecap="round" stroke-linejoin="round" opacity="0.97"/>
<polyline points="31.7,119.6 -50.6,126.7" fill="none" stroke="white" stroke-width="0.82" stroke-linecap="round" stroke-linejoin="round" opacity="0.66"/>
<polyline points="250.4,243.5 188.6,74.4 181.9,42.3 177.8,-16.6" fill="none" stroke="white" stroke-width="3.29" stroke-linecap="round" stroke-linejoin="round" opacity="0.99"/>
<polyline points="181.9,42.3 192.4,33.3 203.3,25.4" fill="none" stroke="white" stroke-width="1.22" stroke-linecap="round" stroke-linejoin="round" opacity="0.82"/>
<polyline points="188.6,74.4 194.9,50.5 206.8,25.3 220.6,9.7" fill="none" stroke="white" stroke-width="0.65" stroke-linecap="round" stroke-linejoin="round" opacity="0.86"/>
<polyline points="181.9,42.3 181.6,31.4 185.4,24.7 179.8,10.9" fill="none" stroke="white" stroke-width="0.62" stroke-linecap="round" stroke-linejoin="round" opacity="0.55"/>
<polyline points="256.8,245.1 256.6,167.1 265.6,-6.2" fill="none" stroke="white" stroke-width="1.89" stroke-linecap="round" stroke-linejoin="round" opacity="0.93"/>
<polyline points="256.6,167.1 244.2,147.8 219.6,125.7 208.7,97.5" fill="none" stroke="white" stroke-width="1.32" stroke-linecap="round" stroke-linejoin="round" opacity="0.79"/>
<polyline points="256.6,167.1 262.9,161.1 269.8,148.6" fill="none" stroke="white" stroke-width="1.37" stroke-linecap="round" stroke-linejoin="round" opacity="0.54"/>
<polyline points="256.6,167.1 269.4,134.9 286.5,102.9" fill="none" stroke="white" stroke-width="1.29" stroke-linecap="round" stroke-linejoin="round" opacity="0.88"/>
<polyline points="262.3,247.6 292.3,196.1 311.3,153.9 355.7,28.5 400.2,-57.9" fill="none" stroke="white" stroke-width="3.07" stroke-linecap="round" stroke-linejoin="round" opacity="0.88"/>
<polyline points="311.3,153.9 317.6,81.4" fill="none" stroke="white" stroke-width="1.46" stroke-linecap="round" stroke-linejoin="round" opacity="0.75"/>
<polyline points="267.4,250.5 488.5,136.6 506.2,138.3 536.4,153.0" fill="none" stroke="white" stroke-width="1.05" stroke-linecap="round" stroke-linejoin="round" opacity="0.91"/>
<polyline points="488.5,136.6 514.5,141.3 539.1,149.3 560.9,150.5" fill="none" stroke="white" stroke-width="1.09" stroke-linecap="round" stroke-linejoin="round" opacity="0.70"/>
<polyline points="506.2,138.3 543.4,87.8" fill="none" stroke="white" stroke-width="1.24" stroke-linecap="round" stroke-linejoin="round" opacity="0.48"/>
<polyline points="506.2,138.3 558.3,122.2" fill="none" stroke="white" stroke-width="1.00" stroke-linecap="round" stroke-linejoin="round" opacity="0.93"/>
<polyline points="341.0,314.5 236.5,358.5 218.9,359.9 174.7,320.2 152.7,272.8 210.4,165.5 317.3,172.3" fill="none" stroke="white" stroke-width="1.00" stroke-linecap="round" stroke-linejoin="round" opacity="0.82"/>
<polyline points="361.1,323.4 322.9,354.2 149.8,311.0 335.3,156.7" fill="none" stroke="white" stroke-width="0.78" stroke-linecap="round" stroke-linejoin="round" opacity="0.80"/>
<polyline points="422.1,274.5 403.5,334.4 233.7,427.6 179.9,409.3 102.7,168.5 194.0,93.2 279.6,86.9" fill="none" stroke="white" stroke-width="1.69" stroke-linecap="round" stroke-linejoin="round" opacity="0.87"/>
</g>
</svg>