<svg xmlns="http://www.w3.org/2000/svg" viewBox="0 0 377 150" fill="none"><path fill="#fff" fill-rule="evenodd" d="M129.577 79.125c-1.818 32.066-28.31 54.197-50.798 58.016-2.129.362-26.892 6.793-51.668-11.821-4.518-3.394-9.455-8.609-11.04-10.879-2.748-3.936-2.93-3.785-5.402-7.919C.488 89.497 1.713 70.547 2.609 66.918c.25-1.014-.153-1.642.706-4.673.129-.457-.11-.508 1.341-5.78 3.482-12.654 13.46-26.421 23.095-33 .443-.303 11.519-9.638 29.105-12.103 28.051-3.932 60.151 10.845 70.762 46.565 1.112 3.743 2.943 16.359 2.063 19.734-.03.114-.008.109-.103 1.465zM13.165 74.813c.476-32.068 25.736-50.118 45.818-52.495 8.936-1.058 16.351.377 17.631.663 29.293 6.532 47.244 34.466 40.541 63.678-4.538 19.775-18.591 29.058-19.604 29.961-5.324 4.741-17.183 9.368-23.842 10.119-19.592 2.21-30.196-3.965-37.963-8.976-1.316-.849-4.523-3.588-5.03-3.951-2.784-1.991-10.545-11.474-13.396-18.882-2.927-7.603-3.82-12.298-4.155-20.117m281.354-22.276c.083-2.325.281-7.013 1.463-11.174 7.081-24.937 29.955-34.724 53.321-29.077 9.627 2.327 18.966 10.617 18.943 11.502-.007.27-5.074 6.186-8.758 10.184-1.646 1.786-1.656-.428-6.844-3.879-.911-.606-7.224-4.805-12.7-5.062-2.999-.141-2.96-.355-3.219-.351-1.28.02-1.233.227-2.499.316-18.124 1.267-23.008 17.975-23.579 23.614-1.187 11.738 3.736 19.298 4.663 20.722 5.305 8.145 14.634 10.938 17.828 11.059 2.671.101 2.637.299 2.868.299 1.124 0 1.07-.253 2.17-.311.582-.031 4.624-.244 7.189-1.215 11.5-4.357 12.654-10.474 14.604-8.547 7.407 7.321 8.044 8.136 8.656 8.919.856 1.095-6.706 6.774-7.368 7.271-15.14 11.37-35.311 8.61-45.458 2.891-21.648-12.2-20.975-32.995-21.276-37.162zm-128.653 0c.234 2.673-.045 18.325 15.214 25.639 1.127.54 13.825 6.885 28.004-3.479 4.22-3.084 5.303-5.119 6.073-4.405 1.084 1.005 9.094 9.393 9.108 9.552.004.048-9.975 13.31-28.012 14.541-14.318.977-19.233-2.065-25.492-4.911-4.022-1.829-27.349-17.434-18.946-49.473 3.118-11.889 14.026-23.219 24.694-26.532 6.101-1.894 6.461-2.772 18.653-2.716.493.002.452.056 6.117.737 4.669.561 14.513 4.451 20.063 9.839 2.083 2.022 2.898 2.23 2.089 3.07-5.452 5.663-8.646 10.995-9.849 10.046-.343-.271-12.95-13.713-29.9-8.442-3.202.996-11.188 5.075-14.756 13.237-.173.395-2.854 4.91-3.06 13.297M292.748 91.341c-.11 1.239.331 1.682-.584 1.748-.438.03-50.568.013-54.965.012-1.532-.001-1.569-.38-1.572-1.76-.013-6.296-.16-77.74.011-78.707.111-.633.414-.601 12.34-.585.218 0 2.569.003 2.709.324.266.612-.199 66.196.247 66.676.534.575 41.069-.163 41.639.397.216.212.175.268.175 11.895" clip-rule="evenodd"/><path fill="#fff" fill-rule="evenodd" d="m108.183 81.371.301.299.052.3c-.724.246-.791-.034-9.295 2.224-3.632.965-15.531 3.67-16.884 3.977-15.151 3.445-15.01 3.882-30.17 7.239-7.621 1.688-9.188 2.759-8.584.985.241-.707-.02-.771 2.326-9.04.232-.818.783-3.789 2-7.84.223-.742.088-.773 2.421-9.376.087-.321.63-4.117 1.45-4.057.836.062 51.944 14.389 56.383 15.289" clip-rule="evenodd"/><path fill="#fff" fill-rule="evenodd" d="M30.27 91.15c-5.367 1.545-5.56 1.326-5.773.909-.283-.553.413-.493 1.93-7.516.38-1.757 7.623-30.287 7.838-30.5.738-.731 13.044 3.405 17.857 4.421 2.012.425 43.373 11.942 47.14 12.991 3.306.92 5.337 1.284 3.588 1.616-3.17.601-7.426 1.944-7.944 1.799-18.618-5.209-40.148-10.916-43.452-11.946-2.135-.666-2.263-.214-2.313-.036-.477 1.687-.398 1.69-5.396 21.234-1.036 4.052-1.202 4.151-2.335 4.444-3.78.976-10.245 2.389-11.14 2.584m241.22 36.84c0 10.101.121 10.424-.493 10.52-.26.041-22.611.023-22.679.011-.689-.121-.59-.48-.59-18.794 0-2.217-.283-4.857.616-4.973.081-.011 22.321-.024 22.617.008.638.068.529.424.529 13.228m-8.781-6.3c1.235-.02 2.302-.105 2.421.224.157.436-.182.358-8.46 8.659-1.357 1.361-2.501.849-5.099.901-.198.004-2.454.481-.787-1.035 3.125-2.843 6.63-6.586 7.185-7.179.576-.615-.612-1.571.1-1.607.371-.019.364.111 4.64.037m2.117 7.825c.626.268 4.859 1.861 3.268 2.055-.33.04-8.581-.057-9.327-.066-1.582-.019 1.063-1.898 1.666-2.554 1.365-1.487 1.69-.68 4.394.564zm41.358-25.408c62.583 0 62.654-.024 62.841.199 1.31 1.563-.958 1.063-25.474 1.063-192.93 0-192.95.017-193.209-.147-.112-.071-.817-1.107.621-1.116zm58.206 17.607c.603.02 1.208-.01 1.811.01 3.018.098 4.008 6.474 1.791 8.789-1.621 1.693-7.335 1.595-7.462.696-.021-.151-.016-8.717 0-8.954.053-.804 2.663-.541 3.86-.541m-2.282 3.761c.088-1.587-.338-1.978.501-2.066.287-.03 2.253-.235 3.6.219 1.544.52.843 4.984.792 5.12-.589 1.58-3.997 1.124-4.059 1.121-1.203-.059-.829-3.162-.834-4.394m-194.804 1.078c.135 5.858-9.104 6.241-9.137.359-.038-6.64 8.632-6.493 9.137-.359m-7.538 0c.531-4.512 4.632-3.145 5.415-1.7 2.413 4.453-5.13 7.425-5.415 1.7M315.167 121.714c2.124 0 4.925-.537 4.953 1.608.033 2.492.369 2.663-.891 4.043-.713.781 2.987 5.371-.15 4.336-.982-.324-1.616-4.147-2.814-4.226-.169-.011-1.99-.13-2.045.533-.236 2.856.576 3.844-1.204 3.766-1.097-.048-.82-1.329-.82-7.377 0-.431-.06-2.223.148-2.472.275-.329.361-.167 2.823-.211m3.365 2.681c-.12 1.995-.996 1.314-3.005 1.314-1.339 0-1.3-.342-1.517-1.655-.011-.064-.109-.66.447-.671 3.362-.069 3.894-.176 4.075 1.013zM210.611 131.032c-.08-.003-1.944.387-1.97-.874-.161-7.595-.103-7.804.509-7.992.012-.004 7.539-.89 7.398 4.74-.095 3.813-5.359 4.096-5.937 4.126m.719-1.414c-.713-.088-.712-.073-.77-.095-.333-.133-.333-2.731-.332-2.97 0-1.372-.967-3.973 2.917-2.563 2.049.744 3.072 5.181-1.815 5.629zM224.983 131.032c-1.279-.113-1.859.415-1.958-.874-.035-.462.039-4.202-.03-6.838-.062-2.341 5.098-1.039 5.781.092.676 1.119-.336 2.353-.466 2.511-.658.802 2.402 1.555.5 4.121-.61.824-3.512.972-3.827.988m1.077-1.415c-.91-.094-1.319.344-1.388-.558-.273-3.579 2.853-1.486 2.961-1.115.404 1.398-1.391 1.647-1.573 1.673m-.36-6.068c.108.008 1.053.075 1.329.285 1.849 1.41-2.221 2.8-2.361 1.275-.164-1.781.506-1.494 1.033-1.56zM293.249 121.714c3.485 0 5.292-.349 5.258.881-.031 1.15-2.741.81-4.899.802-.966-.003-1.517-.347-1.358.624.089.546.025 1.627.657 1.679 2.926.239 3.955-.541 3.761 1.194-.007.058-.056.499-.508.528-3.027.193-3.692-.408-3.792.915-.16 2.13.879 1.549 3.035 1.549.235 0 2.822 0 2.935.206.219.398.453 1.637-.771 1.655-6.38.095-6.443.223-6.854-.139-.476-.419-.44-9.598-.026-9.794.185-.087.188-.007 2.559-.1zm48.505 0c3.539 0 5.199-.354 5.234.881.05 1.767-6.136-.071-6.139 1.418-.006 2.532 1.252 1.534 3.793 1.7 1.045.068 1.02 1.693.007 1.721-2.665.074-4.224-.623-3.564 1.978.286 1.126 5.601-.264 5.869 1.059.385 1.904-.755 1.272-2.684 1.279-3.842.013-5.189.321-5.197-.881-.055-8.382-.337-8.473.161-8.992.14-.146.172-.011 2.521-.162zM177.302 127.575c.084.154-.018.162.062.309.017.032 0 0 .454.009 1.369-4.28 1.474-6.833 2.881-5.556.549.499-.345 1.622-1.601 6.759-.64 2.615-1.896 2.018-2.174 1.374-1.209-2.804-1.637-7.136-2.367-4.695-1.035 3.46-1.712 6.359-3.013 4.997-.098-.103-2.849-7.978-2.246-8.522.197-.177 1.178-.247 1.533.669.467 1.206 1.398 8.004 1.977 3.975.189-1.311 1.105-3.603 1.227-3.907.294-.735 1.58-1.811 2.183.664.28 1.147.993 3.611 1.084 3.924M305.21 123.8c-2.53 7.762-2.661 7.916-3.351 7.967-2.118.157-.647-1.779.74-5.93 1.112-3.327.843-4.096 3.224-4.147 1.733-.037 1.996 4.24 3.117 6.36.069.131 1.055 3.034 1.057 3.178.004.222-1.128 1.942-2.376-1.443-.223-.605-3.064-.423-3.187-.744-.07-.182.325-1.493 1.004-1.567 2.168-.236.69-1.261.282-3.388l-.255-.525c-.116.002-.139.238-.255.239M195.537 122.439c.299.091 3.053.932 1.861 3.437-.294.619-1.557 1.253-1.384 1.7.23.594 2.815 3.617.95 3.477-1.587-.119-3.115-5.699-3.943-3.416-.133.367.218 3.313-.719 3.392-1.094.092-.827-1.46-.824-7.351.001-1.294.291-2.058 4.059-1.239m-1.096 3.584c-2.863-.147-1.295-2.369-.734-2.458 2.388-.381 3.513 2.034.734 2.458M326.305 121.714c2.883-.016 5.268-.376 5.21.881-.041.884-.78.801-.896.802-4.874.043-5.063-.227-5.299.298-.101.224.062 1.294.079 1.405.085.56.499.594.565.6 2.926.239 3.955-.541 3.761 1.194-.121 1.086-4.289-.007-4.289 1.059 0 .775.385 3.756-.924 3.79-.103.003-.907.024-.935-.885-.006-.194-.006-8.474.003-8.598.061-.776.439-.414 2.725-.546M152.767 127.438c-1.723.225-1.053.948-1.104 2.706-.029 1.008-1.586 1.633-1.59-.357-.014-6.891-.223-7.646.885-7.673 7.121-.17 5.276 4.422 3.645 4.926-.911.281-.886.297-1.837.397zm-.003-1.414c-.708-.092-1.01.18-1.074-.551-.012-.135-.12-1.359.128-1.689.976-1.297 5.037 1.824.946 2.24M204.144 129.618c1.385.122 2.307-.413 1.909.926-.214.719-5.578.857-5.846-.044-.067-.224-.26-7.653.134-8.129.209-.252 5.627-.872 5.546.586-.061 1.1-3.855.159-4.033 1.033-.447 2.191.78 1.645 3.014 1.719 1.424.047.808 1.387.332 1.429-2.835.249-3.34-.181-3.378.841-.004.117-.046 1.241.16 1.455.134.14 1.988.181 2.162.185zm-17.965 1.414c-.244.002-2.846.02-3.042-.168v-4.671c0-1.697-.553-4.076 1.244-4.085 1.357-.007 4.561-.329 4.498.848-.067 1.258-4.876-.437-4.324 2.144.252 1.178 4.202-.005 4.02 1.442-.153 1.221-3.922-.173-3.999 1.436-.113 2.356 1.156 1.336 3.746 1.623.094.01.936.104.759.911-.187.853-.547.425-2.902.52M358.09 131.583c-.64.086-.603.174-1.245.167-5.609-.059-5.614.122-6.09.019-1.079-.233-.493-.764-.545-8.809-.007-1.135.112-1.394 1.229-1.265.915.106.472.604.592 7.384.024 1.373 3.952.679 5.517.817.529.047.541 1.545.543 1.687zm-75.979.167c-1.242-.07-1.726.424-1.77-.531-.034-.739-.392-8.482.096-9.251.066-.103 1.478-.877 1.488.627.036 5.221-.406 7.279.901 7.289 2.586.021 5.294-.304 5.425.616.036.254-.035.981-.359 1.133-.33.155-2.292.116-5.782.116zM233.7 123.975c.803 1.415 1.125 1.935 1.622 1.093.839-1.421 1.564-3.087 2.618-2.959 1.829.222-2.3 3.807-2.312 5.518-.017 2.512.332 2.631-.243 3.217-.178.181-1.326.45-1.346-.704-.032-1.836.601-2.089-1.621-5.308-.441-.639-2.194-2.674-.616-2.718.629-.018.838.13 1.898 1.861m101.231-2.261c.227.052.87-.248.878.882.059 8.884-.2 8.948-.487 9.061-1.483.582-1.491-.657-1.492-.792-.056-8.273-.281-8.32.124-8.906.241-.35.324-.182.978-.244z" clip-rule="evenodd"/><path fill="#fff" fill-rule="evenodd" d="M305.21 123.8c.116-.002.139-.237.255-.238l.255.525zM177.302 127.575l.516.318c-.454-.009-.437.023-.454-.009-.08-.147.022-.155-.062-.309" clip-rule="evenodd"/></svg>