<svg xmlns="http://www.w3.org/2000/svg" viewBox="0 0 280 188" fill="none"><g fill="#fff" clip-path="url(#a)"><path d="M46.929 115.347c-3.898-6.598-11.246-10.645-19.492-10.645-12.895 0-22.789 9.293-22.789 23.087 0 13.646 10.045 23.017 22.789 23.017 8.922 0 16.568-4.798 20.316-12.146l4.274 1.199c-4.35 9.296-13.645 15.22-24.59 15.22-15.068 0-27.213-11.471-27.213-27.29 0-15.817 12.145-27.285 27.213-27.285 10.27 0 19.117 5.397 23.838 13.718zM99.62 101.552v52.476h-4.35v-25.335H64.083v25.335H59.81v-52.476h4.274v23.015H95.27v-23.015zM135.082 150.881c12.743 0 22.864-9.446 22.864-23.092 0-13.794-10.121-23.087-22.864-23.087-12.82 0-22.791 9.293-22.791 23.087 0 13.646 9.971 23.092 22.791 23.092m0-50.377c15.067 0 27.288 11.468 27.288 27.285 0 15.819-12.221 27.29-27.288 27.29-15.07 0-27.215-11.471-27.215-27.29 0-15.817 12.145-27.285 27.215-27.285M174.686 101.552h-4.273v52.476h4.273zM232.055 115.347c-3.898-6.598-11.242-10.645-19.49-10.645-12.895 0-22.789 9.293-22.789 23.087 0 13.646 10.045 23.017 22.789 23.017 8.922 0 16.568-4.798 20.316-12.146l4.272 1.199c-4.346 9.296-13.643 15.22-24.588 15.22-15.068 0-27.213-11.471-27.213-27.29 0-15.817 12.145-27.285 27.213-27.285 10.271 0 19.117 5.397 23.84 13.718zM279.497 149.906v4.122h-34.559v-52.476h34.111v4.123h-29.838v18.292h24.065v3.974h-24.065v21.965zM46.705 53.806C42.806 47.209 35.459 43.16 27.212 43.16c-12.894 0-22.789 9.298-22.789 23.09 0 13.644 10.045 23.015 22.789 23.015 8.92 0 16.567-4.798 20.317-12.145l4.273 1.2c-4.349 9.295-13.646 15.217-24.59 15.217C12.144 93.537 0 82.067 0 66.25c0-15.82 12.144-27.29 27.212-27.29 10.27 0 19.116 5.398 23.838 13.72zM75.478 68.423c9.522 0 14.619-5.021 14.619-12.218 0-7.721-5.623-12.071-14.619-12.071H64.609v24.289zm15.82 24.065L78.777 72.022a27 27 0 0 1-3.524.227H64.609v20.239h-4.274V40.012h14.918c11.995 0 19.268 6.222 19.268 16.193 0 7.648-4.199 12.894-11.396 14.993l13.044 21.29zM111.377 40.012h-4.272v52.476h4.272zM160.926 40.012v4.122h-17.99v48.354h-4.35V44.134H120.67v-4.122zM174.485 40.012h-4.272v52.476h4.272zM231.532 53.806c-3.899-6.597-11.246-10.646-19.493-10.646-12.894 0-22.789 9.298-22.789 23.09 0 13.644 10.045 23.015 22.789 23.015 8.92 0 16.569-4.798 20.317-12.145l4.273 1.2c-4.349 9.295-13.644 15.217-24.59 15.217-15.068 0-27.212-11.47-27.212-27.286 0-15.82 12.144-27.29 27.212-27.29 10.27 0 19.118 5.398 23.838 13.72zM274.7 54.03c-1.125-6.97-6.899-11.168-14.246-11.168-7.721 0-13.342 3.672-13.342 9.819 0 6.373 7.795 8.397 14.918 10.345 7.271 2.026 17.691 4.949 17.691 15.517 0 8.623-7.496 14.994-18.816 14.994s-18.217-6.746-19.342-15.367l4.125-1.124c.6 6.746 5.996 12.519 15.367 12.519 8.696 0 14.168-4.65 14.168-10.946 0-8.696-9.896-10.344-17.243-12.52-5.995-1.723-15.292-4.272-15.292-13.268 0-8.17 7.572-13.87 17.917-13.87 9.372 0 16.718 5.474 18.292 13.945zM60.21.579l3.488 10.726h11.277l-9.125 6.629 3.483 10.725-9.122-6.629-9.122 6.629 3.486-10.725-9.125-6.629h11.278zM113.31.579l3.486 10.726h11.278l-9.125 6.629 3.483 10.725-9.122-6.629-9.123 6.629 3.487-10.725-9.126-6.629h11.278zM166.408.579l3.487 10.726h11.278l-9.126 6.629 3.483 10.725-9.122-6.629-9.122 6.629 3.486-10.725-9.125-6.629h11.278zM219.506.579l3.487 10.726h11.278l-9.126 6.629 3.484 10.725-9.123-6.629-9.122 6.629 3.487-10.725-9.126-6.629h11.278zM16.58 179.799h6.942l-3.463-9.889zm9.67 7.793-1.544-4.413H15.39l-1.533 4.413H9.945l7.95-21.907h4.318l7.919 21.907zM62.078 187.592l-5.969-21.907h3.773l4.615 17.12 4.976-17.12h3.317l4.945 17.119 4.601-17.119h3.545l-5.955 21.907h-4.163l-4.635-16.05-4.665 16.05zM118.735 179.799h6.942l-3.463-9.889zm9.671 7.793-1.545-4.413h-9.317l-1.532 4.413H112.1l7.949-21.907h4.319l7.919 21.907zM164.679 169.065v7.323h5.164q1.439 0 2.441-1.064 1.001-1.063 1.002-2.598 0-1.532-1.002-2.597t-2.441-1.064zm8.889 18.527-4.63-7.98h-4.259v7.98h-3.599v-21.907h8.763q2.942 0 4.992 2.05t2.05 4.991a6.58 6.58 0 0 1-1.205 3.834 6.9 6.9 0 0 1-3.145 2.52l4.976 8.512zM215.317 184.15q3.099 0 5.054-2.129 1.956-2.127 1.956-5.382 0-3.287-1.956-5.399t-5.054-2.113h-5.007v15.023zm0-18.465q4.507 0 7.497 3.16 2.987 3.162 2.988 7.794 0 4.6-2.988 7.777-2.99 3.176-7.497 3.176h-8.606v-21.907zM262.013 188q-3.16 0-5.367-1.44t-3.083-3.943l3.098-1.816q1.315 3.693 5.446 3.694 2.034 0 3.052-.797 1.016-.795 1.017-2.075-.001-1.342-1.097-2.045-1.098-.702-3.886-1.545l-2.515-.934q-.984-.366-2.064-1.102-1.08-.735-1.611-1.831-.533-1.096-.533-2.566 0-2.91 2.066-4.617 2.065-1.705 4.977-1.705 2.628 0 4.6 1.283 1.972 1.284 3.037 3.536l-3.037 1.753q-1.377-3.067-4.6-3.067c-1.046 0-1.878.246-2.504.736q-.939.736-.939 1.986 0 1.196.96 1.886.959.69 3.478 1.456l1.798.678 1.639.616q1.067.403 1.595.847.527.443 1.133 1.109.604.667.853 1.521.25.857.25 1.934 0 2.974-2.145 4.71-2.144 1.738-5.618 1.738"/></g><defs><clipPath id="a"><path fill="#fff" d="M0 0h280v188H0z"/></clipPath></defs></svg>