<svg xmlns="http://www.w3.org/2000/svg" viewBox="0 0 1000 431" fill="none"><g fill="#fff" clip-path="url(#a)"><path d="M121.476 117.658v55.967h118.293V290.65H121.476v138.642H0V0h258.212l8.269 117.658zM613.28 65.989c40.299 41.136 60.46 90.793 60.46 148.96 0 58.59-20.163 108.45-60.46 149.591q-60.46 61.7-145.842 61.7c-57.341 0-106.171-20.566-146.468-61.7-40.309-41.14-60.458-91.001-60.458-149.591 0-58.169 20.149-107.824 60.458-148.96 40.297-41.136 89.127-61.704 146.468-61.704q85.38 0 145.842 61.704M432.534 300.96c0 9.566 3.526 17.872 10.596 24.933 7.059 7.069 15.582 10.597 25.553 10.597 9.973 0 18.387-3.528 25.243-10.597 6.858-7.061 10.285-15.367 10.285-24.933V127.069c0-9.971-3.427-18.484-10.285-25.553-6.854-7.06-15.268-10.596-25.243-10.596-9.971 0-18.493 3.536-25.553 10.596-7.072 7.069-10.596 15.582-10.596 25.553z"/><path d="m863.26 430.569-61.052-108.758-59.147 108.758H609.503L736.702 207.97 616.499 0h137.375l50.244 92.855L854.996 0h132.92L870.257 206.696 1000 430.567H863.26z"/></g><defs><clipPath id="a"><path fill="#fff" d="M0 0h1000v430.569H0z"/></clipPath></defs></svg>