<svg xmlns="http://www.w3.org/2000/svg" viewBox="0 0 478 181" fill="none"><g fill="#fff" fill-rule="evenodd" clip-path="url(#a)" clip-rule="evenodd"><path d="M236.555 140.625c-2.816-3.57-7.481-5.575-12.07-5.575-11.227 0-18.648 8.745-18.648 19.831 0 10.247 6.999 19.002 18.648 19.002 5.724 0 10.098-2.477 13.068-6.551l5.717 4.2c-1.489 2.015-7.49 8.545-18.924 8.545-15.899 0-25.707-12.955-25.707-25.196 0-15.138 10.652-26.025 26.053-26.025 6.569 0 13.498 2.415 17.511 7.569zM302.701 173.883c-10.666 0-17.573-8.755-17.573-19.422s6.907-19.411 17.573-19.411 17.573 8.745 17.573 19.411-6.906 19.422-17.573 19.422m0 6.194c14.22 0 24.288-11.149 24.288-25.616 0-14.445-10.068-25.605-24.288-25.605-14.227 0-24.287 11.16-24.287 25.605 0 14.467 10.06 25.616 24.287 25.616M0 131.344h6.44v42.539h21.812v6.194H0zM66.7 131.344h6.44v48.733H66.7zM116.386 131.344h8.633l26.72 40.072h.145v-40.072h6.577v48.733h-8.365L123.1 140.026h-.138v40.051h-6.576zM369.345 131.344h6.44v42.539h21.812v6.194h-28.252zM436.055 131.344h8.443l26.182 40.072h.134v-40.072h6.44v48.733h-8.194l-26.421-40.051h-.163v40.051h-6.421zM254.29 53.383c-.063-13.893-.857-29.576-3.078-44.011 0 0-4.616-.542-10.628-.628-.413-5.651-.746-8.744-.746-8.744h-1.491s-.333 3.093-.745 8.744c-6.013.087-10.629.628-10.629.628-2.237 14.435-3.03 30.118-3.085 44.011-4.942.565-8.876 1.122-8.876 1.122v1.43s3.934.548 8.876 1.121c.055 13.894.848 29.569 3.085 44.004 0 0 4.616.549 10.629.635.412 5.652.745 8.737.745 8.737h1.491s.333-3.085.746-8.737c6.012-.086 10.628-.635 10.628-.635 2.221-14.435 3.014-30.11 3.078-44.003 4.941-.574 8.883-1.123 8.883-1.123v-1.428s-3.942-.558-8.883-1.123m-6.401-39.749c1.943 13.525 2.443 30.503 2.498 39.325-2.823-.29-5.718-.534-8.225-.651-.063-16.335-.666-29.592-1.245-38.674zm-17.601 0h6.972c-.563 9.082-1.181 22.34-1.237 38.674-2.506.117-5.417.36-8.225.651.055-8.822.539-25.8 2.49-39.325m0 83.171c-1.951-13.532-2.435-30.502-2.49-39.325 2.808.283 5.719.526 8.225.652.056 16.334.674 29.584 1.237 38.673zh17.601-6.972c.579-9.09 1.182-22.339 1.245-38.673 2.507-.126 5.402-.37 8.225-.652-.055 8.823-.555 25.793-2.498 39.325z"/></g><defs><clipPath id="a"><path fill="#fff" d="M0 0h477.254v180.077H0z"/></clipPath></defs></svg>