<svg xmlns="http://www.w3.org/2000/svg" viewBox="0 0 1080 425" fill="none">
<path d="M217.798 129.149V154.795H219.266C265.138 127.134 312.477 124.935 340.734 124.935C417.064 124.935 443.303 146.369 452.844 154.612C470.459 144.537 508.073 124.203 573.578 124.203C703.853 124.203 703.853 175.496 703.853 195.647V316.918H599.266V209.752C599.266 187.586 599.266 162.856 543.486 162.856C515.963 162.856 487.523 171.282 477.615 183.556C468.257 193.998 464.587 203.524 464.587 226.789V317.651H360V214.149C360 182.274 360.734 162.856 305.688 162.856C277.982 162.856 249.725 170.183 239.083 180.991C230.642 189.235 225.321 198.028 225.321 225.69V317.285H120.184V128.599H217.431C217.431 128.782 217.798 129.149 217.798 129.149ZM957.064 170.916H881.101V246.39C881.101 272.953 881.101 281.746 912.11 281.746C926.789 281.746 940 280.097 953.945 277.349L957.064 276.983L966.973 315.269C930.275 322.047 889.908 322.78 878.532 322.78C844.404 322.78 800.184 317.834 783.853 303.728C769.908 292.187 768.257 281.013 768.257 252.435V170.733H716.697V131.347H768.257V94.1595L881.651 65.0323V131.53H957.982V170.916C957.798 170.733 957.064 170.916 957.064 170.916ZM69.3578 424.084C27.7064 361.25 0 286.692 0 211.584C0 122.92 34.8624 50.7435 70.2752 0H112.477C81.2844 69.2457 60 128.05 60 213.416C60 311.422 94.8624 387.08 110.642 421.336C111.193 421.336 112.11 423.351 112.11 424.084H69.3578ZM1010.64 0.915948C1052.29 63.75 1080 138.308 1080 213.416C1080 301.897 1045.14 374.256 1009.72 425H967.523C998.716 355.754 1020.18 296.95 1020.18 211.584C1020.18 113.394 985.138 38.1034 969.358 3.66379C968.807 3.29741 967.89 1.46552 967.89 0.915948H1010.64Z" fill="white"/>
</svg>
