<svg xmlns="http://www.w3.org/2000/svg" viewBox="0 0 179 246" fill="none"><path fill="#fff" d="M95.685 56.342a76 76 0 0 1 2.1-2.215c-2.05-1.693-5.033-3.684-9.474-4.752-.774.646-1.656 1.344-2.517 2.158a23.24 23.24 0 0 1 9.878 4.815zM91.373 61.526a70 70 0 0 1 1.926-2.444c-3.355-2.768-7.194-4.346-10.188-4.877a50 50 0 0 0-1.976 2.361 23.14 23.14 0 0 1 10.22 4.97zM87.472 66.97c.531-.79 1.125-1.648 1.752-2.543-2.454-2.05-5.933-4.056-10.22-4.907-.612.91-1.69 2.668-1.69 2.668 3.51.652 7.089 2.228 10.158 4.784zM66.591 123.757l4.35-2.563v-9.443H50.096v9.443l4.567 2.563.059 36.348-15.78-48.46h-16.9v9.444l5.25 2.593v52.498l-5.125 2v8.233l22.335 5.684v-9.661l-5.126-3.914.003-31.374 16.092 47.527L66.591 198zM97.66 198.683l-4.408-5.234v-36.655h7.456l2.781 4.006h5.901v-19.788h-5.901l-2.89 4.226h-7.331v-22.242h9.785l2.56 7.89h8.45v-19.228h-38.52v9.567l4.846 2.457v66.166l-4.877 2.001v8.014l22.149 8.264zM156.8 186.571v-24.292h-9.101l-1.828 14.538-9.536 2.575v-55.604l4.349-2.457v-9.568h-22.148v9.568l4.69 2.457v59.021l-5.498 4.504-.068 9.695z"/><path fill="#fff" fill-rule="evenodd" d="M89.335 235.96a49 49 0 0 1 7.02-8.512c8.357-8.046 19.975-13.047 35.414-15.283 39.451-5.685 41.315-26.809 41.626-31.686V34.169l-.27.279c-2.06 1.508-19.294 13.398-42.971 7.486-29.373-7.35-40.97-29.318-41.005-29.385-.065.123-11.515 22.075-41.004 29.385-24.83 6.208-42.837-7.74-42.868-7.765v146.31c.003 4.97 2.081 26.094 41.626 31.686 15.562 2.252 27.18 7.238 35.412 15.283a47 47 0 0 1 7.02 8.512M72.586 95.192c-.503.065-1.127-.092-1.186-.397 1.087-4.94 3.727-14.414 9.473-24.448a23.3 23.3 0 0 1 3.17 2.113c.332-.578.8-1.308 1.493-2.429-2.888-2.305-6.213-3.886-10.002-4.598-.012.023-.728 1.404-1.246 2.489.02.003 1.469.264 3.23.897-5.1 10.872-6.82 20.999-7.299 25.566-1.441-2.33-2.576-7.645-2.976-10.562-3.728-27.46 16.06-43.522 37.587-43.8 1.444-.019 1.999.242 2.013.25 0 0-4.752 1.801-10.22 5.964 0 0-1.323-.538-2.69-.886a73 73 0 0 0-2.628 1.78c2.547.622 5.81 1.936 8.978 4.536a90 90 0 0 1 2.177-2.01c-.705-.587-1.936-1.45-3.029-2.068 4.241-4.179 7.436-6.088 8.167-6.5l.115-.1c.687-.062 1.09.79 1.298 1.302 2.957 7.3 3.681 16.246 1.473 24.789-3.417 13.015-14.32 25.058-37.898 28.112m53.684-29.866-6.679 4.69 2.467-7.89-6.71-5.064h8.201l2.706-7.765 2.708 7.765h8.201l-6.71 5.064 2.47 7.89zm29.2 0-6.679 4.69 2.467-7.89-6.71-5.064h8.201l2.705-7.765 2.707 7.765h8.201l-6.71 5.064 2.469 7.89zm-132.19.155-6.678 4.69 2.467-7.89-6.679-5.063h8.201l2.705-7.766 2.706 7.766h8.202l-6.71 5.063 2.465 7.89zm29.046 0-6.68 4.69 2.468-7.89-6.68-5.063h8.202l2.705-7.766 2.706 7.766h8.2l-6.709 5.063 2.466 7.89zM126.27 91.42l-6.679 4.69 2.467-7.89-6.71-5.064h8.201l2.706-7.766 2.708 7.766h8.201l-6.71 5.063 2.47 7.891zm29.2 0-6.679 4.69 2.467-7.89-6.71-5.064h8.201l2.705-7.766 2.707 7.766h8.201l-6.71 5.063 2.469 7.891zm-132.19.155-6.678 4.69 2.467-7.89-6.679-5.064h8.201l2.705-7.765 2.706 7.765h8.202l-6.71 5.064 2.465 7.89zm29.046 0-6.68 4.69 2.468-7.89-6.68-5.064h8.202l2.705-7.765 2.706 7.765h8.2l-6.709 5.064 2.466 7.89zM89.149 221.39c-.073-.09-11.402-14.086-41.004-18.669-33.934-5.249-32.928-21.216-32.928-22.024v-76.728h148.175v76.728c0 .808 1.242 16.775-32.928 22.024-27.725 4.282-39.505 16.945-40.869 18.51z" clip-rule="evenodd"/></svg>