<svg xmlns="http://www.w3.org/2000/svg" viewBox="0 0 247 248" fill="none"><g fill="#fff" clip-path="url(#a)"><path d="M122.767 1.15v2.433l4.203.22-.444 11.72h2.875l.442-11.72 4.203.222V1.593zm-8.401.22-9.729 1.106 1.769 14.153 2.874-.223-.663-5.97 5.97-.662-.221-2.432-5.97.663-.442-3.317 6.633-.884zm22.995.444-2.211 14.15 2.655.442.883-5.97h.663c.663.222 1.106.221 1.548.442.221.222.444.665.665.886s.441 1.105 1.104 2.21l1.548 3.318 3.489.217-.172.224 2.874.886 1.99-2.875 5.528 1.548.221 3.538 3.096.883-1.548-15.256-2.874-.884-9.084 11.895-1.309-3.051c-.663-1.106-.885-1.99-1.327-2.432q-.33-.663-1.326-1.327c1.327 0 2.431-.22 3.095-.884.663-.442 1.106-1.326 1.327-2.432.221-.663 0-1.549-.221-2.212s-.664-1.105-1.327-1.547c-.664-.442-1.769-.664-3.317-.885zM96.138 4.038q-.706.041-1.453.208c-1.105.22-2.21.663-2.873 1.327-.664.442-1.106 1.105-1.549 1.769s-.662 1.326-.883 2.21a7.4 7.4 0 0 0 .22 3.76c.443 2.21 1.547 3.758 3.095 4.863q2.322 1.328 5.307.665c1.99-.443 3.539-1.549 4.424-3.097.884-1.548.884-3.537.441-5.749-.442-2.21-1.548-3.759-2.875-5.086q-1.74-.994-3.854-.87m43.877.428 2.211.442c1.106.221 1.769.444 1.99.444.442 0 .662.441.884.663.221.22.222.662.222 1.104s-.222.885-.443 1.106c-.222.221-.442.442-.884.442s-1.328 0-2.654-.22l-2.211-.222zM96.538 6.788a2.9 2.9 0 0 1 1.464.554q1.326.994 1.99 3.315c.442 1.77.221 3.097-.221 3.982-.442.884-1.326 1.546-2.432 1.767-1.106.442-2.212.222-3.096-.442q-1.327-.995-1.99-3.317c-.221-1.769-.222-3.095.22-3.98.443-.884 1.329-1.548 2.434-1.769.553-.11 1.106-.166 1.63-.11M79.872 9.11l-10.393 4.643.883 2.21 3.76-1.769 4.865 10.835 2.875-1.106-4.865-10.833 3.758-1.77zm77.39.22.442 5.529-3.759-1.106zm10.614 0-5.749 13.047 2.432.883 3.759-8.401 1.548 10.833 2.653 1.327 5.749-13.045-2.432-1.105-3.759 8.623-1.548-11.057zm-101.497 5.97-2.21 1.328 4.865 8.18-9.952-5.307-2.432 1.328 7.297 12.381 2.211-1.325-4.642-7.962 9.728 5.307 2.432-1.548zm116.446 1.714c-.359.055-.69.166-1.022.276-.663.222-1.106.664-1.548 1.328-.663.884-.884 1.989-.442 3.094.221.885.885 1.77 1.99 2.875a17 17 0 0 0 1.548 1.77c.443.442.663.883.663 1.104s0 .664-.221.886c-.221.442-.885.883-1.327.883q-.663 0-1.99-.663a3.4 3.4 0 0 1-1.546-1.548c-.221-.442-.222-1.326.221-2.21l-2.434-1.107c-.663 1.548-.884 2.875 0 3.76.442 1.105 1.328 2.211 2.875 3.095 1.106.664 1.99 1.107 2.874 1.107s1.77-.002 2.433-.444c.664-.221 1.327-.883 1.769-1.546.443-.664.663-1.55.663-2.213q0-.994-.663-1.99c-.442-.663-1.105-1.326-2.21-2.431-1.106-1.106-1.548-1.77-1.769-2.211-.222-.221-.222-.665 0-.886.221-.22.441-.441.883-.441q.996 0 1.99.662.996.664 1.327 1.327c0 .443.001 1.106-.22 1.77l2.431 1.327c.664-1.106.884-2.212.442-3.317-.442-1.106-1.326-2.212-2.873-3.097-.885-.663-1.77-.883-2.655-1.104a2.9 2.9 0 0 0-1.189-.056M53.337 23.482l-8.401 6.414 8.623 11.276 9.065-6.413-1.548-1.99-6.412 4.865-2.431-3.096 5.749-4.422-1.548-1.99-5.75 4.422-1.99-2.432 6.191-4.644zm141.07 0-8.625 11.277 2.211 1.769 3.317-4.2 1.548 1.105c.885.885 1.769 1.548 2.432 1.77.443.22.885.441 1.548.441.443 0 1.106 0 1.769-.442.664-.442 1.327-.884 1.769-1.548.664-.884 1.107-1.77 1.107-2.654 0-.885-.223-1.769-.665-2.432-.442-.442-1.326-1.105-2.652-2.21zm.883 3.76 1.328.664c.884.663 1.327 1.104 1.548 1.325s.442.664.442 1.106-.221.885-.442 1.328c-.221.22-.443.441-.886.662-.442.221-.662 0-1.104 0s-1.106-.442-1.99-1.106l-1.327-.884zM41.618 32.768l-3.096 3.096 5.086 8.623-8.624-5.084-3.095 3.094L42.06 52.45l1.77-1.99-7.96-7.74 9.95 5.97 1.989-1.99-5.97-9.95 7.96 7.96 1.99-1.99zm164.291 1.99c-.663 0-1.547.222-2.21.444-1.106.442-1.991 1.105-3.097 2.21-1.547 1.548-2.432 3.316-2.21 4.864 0 1.769.663 3.317 2.21 4.865 1.327 1.548 3.097 2.211 4.866 2.211s3.536-.884 5.084-2.432c1.548-1.547 2.434-3.317 2.434-5.086s-.663-3.317-2.211-4.865c-.885-.885-1.77-1.325-2.655-1.767-.663-.222-1.326-.444-2.211-.444m1.013 2.83c.756.074 1.42.487 2.084 1.15.884.885 1.104 1.77 1.104 2.875 0 1.106-.663 2.212-1.769 3.318s-2.21 1.768-3.315 1.768c-1.106 0-1.991-.221-2.875-1.106-.885-.884-1.107-1.768-1.107-2.873s.664-2.212 1.769-3.318c1.106-1.105 2.212-1.769 3.317-1.769q.415-.081.792-.044m-177.46 6.899-6.855 9.066 1.99 1.548 2.653-3.317 9.508 7.297 1.548-2.432-9.508-7.297 2.654-3.317zm188.391.444-11.276 8.622 2.212 2.213 4.643-3.538.442.441c.221.664.664.885.664 1.328v1.104c0 .443-.222 1.105-.664 2.432l-1.105 3.538 1.99 2.654 1.104-3.096c.443-1.105.886-1.99.886-2.653v-1.99c.884.885 1.768 1.547 2.653 1.547.884 0 1.769-.22 2.654-.884.663-.442 1.104-1.105 1.325-1.769.221-.884.221-1.547 0-2.21-.221-.664-.884-1.77-1.769-2.876zm-.221 3.758 1.327 1.77c.885 1.105 1.106 1.547 1.328 1.768s.221.663.221 1.105-.223.885-.665 1.106-.662.442-1.104.442c-.222 0-.665 0-.886-.22-.442-.222-.884-.885-1.769-1.99l-1.325-1.77zm8.846 8.181-1.99 1.327 2.211 3.538-10.171 5.97 1.325 2.653 10.173-5.97 2.211 3.538 1.99-1.327zm-203.872.885c-.664 0-1.548.221-1.99.663q-.663.663-1.99 2.653l-3.096 5.307 12.162 7.297 1.325-2.432-5.084-3.096.442-.442c.442-.442.662-.885.884-1.106.22-.221.443-.442.885-.442s1.326-.22 2.653-.22l3.759-.222 1.769-2.875h-3.318c-1.326 0-2.21 0-2.873.22-.442 0-1.106.223-1.77.665a5.07 5.07 0 0 0 .222-3.096c-.221-.884-.885-1.769-1.77-2.21-.663-.443-1.326-.664-2.21-.664m-.221 2.874c.221 0 .662 0 1.105.221.22.221.443.664.664.885v1.105c0 .221-.443 1.107-1.106 2.212l-1.107 1.768-2.873-1.768 1.106-1.991c.663-.885.883-1.548 1.105-1.77.442-.441.664-.662 1.106-.662m212.051 10.835-15.256.884 1.327 2.875 3.538-.22 2.432 5.085-2.432 2.432 1.325 2.874 10.393-11.056zM11.555 74.118l-1.106 2.875 10.835 10.835 1.106-2.875-2.434-2.432 2.213-5.307 3.538.221 1.326-2.874zm220.678.22-3.98 3.982-1.548-3.538zM13.994 76.994l5.75.221-1.549 3.538zm224.435 2.874-2.211.664 1.327 3.98-11.276 3.759.884 2.874 11.276-3.76 1.327 3.982 2.211-.664zM10.702 83.682c-.47 0-.911.056-1.353.166-.885.221-1.548.883-1.99 1.547-.221.663-.664 1.548-1.106 3.317l-1.328 4.423 13.71 4.201.884-2.654-5.307-1.99.444-1.77c.442-1.105.662-2.21.662-2.873 0-.442 0-.885-.22-1.548 0-.442-.444-1.106-.886-1.548a4.3 4.3 0 0 0-1.99-1.105 7.7 7.7 0 0 0-1.52-.166m.195 2.875q.33 0 .663.165c.22.221.662.442.883.663.222.442.444.664.444 1.106s-.223 1.105-.444 2.21l-.441 1.549-3.98-1.106.662-1.547q.333-1.658.665-1.99c.221-.442.441-.664.883-.885q.333-.165.665-.165m231.728 6.356-13.932 3.317.665 2.875 13.929-3.317zM4.043 97.115l-1.77 10.392 13.93 2.434 1.77-10.393-2.432-.442-1.328 7.739-3.759-.663 1.327-7.076-2.21-.442-1.328 7.075-3.096-.663 1.327-7.518zm234.8 2.488c-.636 0-1.299.054-1.962.165-2.211.221-3.539.884-4.644 2.432-1.106 1.547-1.328 3.317-1.107 5.307q.333 2.986 2.655 4.644c1.327 1.106 3.317 1.547 5.528 1.105 2.211-.221 3.98-1.105 5.086-2.653s1.326-3.317 1.105-5.307c-.222-1.106-.663-1.989-1.105-2.874-.442-.442-.885-1.106-1.548-1.548-.664-.663-1.548-.885-2.211-1.106a9.2 9.2 0 0 0-1.797-.165m.747 3.012c.608.083 1.05.249 1.271.47.885.663 1.327 1.547 1.548 2.653.221 1.327-.001 2.212-.664 3.096-.885.663-1.991 1.327-3.538 1.548-1.548.442-2.875.222-3.759-.442-.885-.663-1.548-1.327-1.548-2.654s.222-2.212.885-3.096c.884-.664 1.99-1.326 3.538-1.547.884-.11 1.659-.111 2.267-.028M7.085 111.653c-.552.056-1.05.167-1.492.277-.884.442-1.77.662-2.433 1.326q-.994.663-1.326 1.99a8.2 8.2 0 0 0-.443 2.654l-.221 5.307 14.373.663.22-5.307c0-1.106.001-1.99-.22-2.653a4.3 4.3 0 0 0-1.106-1.99c-.664-.663-1.327-1.106-2.432-1.548-.885-.442-1.99-.664-3.095-.664a6.9 6.9 0 0 0-1.825-.055m1.603 2.93c1.106.221 1.991.221 2.654.442.664.221 1.106.664 1.327.885.222.221.442.662.442 1.105v3.98l-9.508-.442.221-1.326c0-1.327 0-1.991.221-2.433 0-.442.442-1.105.663-1.326q.331-.332 1.327-.664c.663-.221 1.547-.221 2.653-.221m237.485 1.548-14.153.221v2.653l9.287-.221-9.287 5.97v2.875l14.153-.221v-2.654l-9.51.222 9.51-5.971zm-228.42 32.725-6.853 1.99q-2.32.663-3.317 1.327c-.442.442-1.106.664-1.327 1.327-.221.664-.663 1.327-.663 1.99 0 .664 0 1.77.442 3.096.221 1.106.664 1.769 1.106 2.432.443.664.883 1.106 1.547 1.327.663.222 1.326.442 1.99.221s1.99-.443 3.538-.885l7.076-2.211-.884-2.653-7.518 2.211c-1.105.443-1.991.663-2.433.663s-.883-.221-1.326-.442c-.442-.221-.885-.663-1.106-1.548q-.332-1.327 0-1.99c.221-.663.664-1.106 1.106-1.327.221 0 1.106-.221 2.211-.663l7.297-2.211zm225.322 6.413-15.257.884-.885 2.875 11.72 9.729.884-2.876-2.653-2.21 1.769-5.307 3.537-.221zm-7.076 3.317-1.105 3.759-4.423-3.538zm-214.044 3.98-13.044 5.749 1.326 2.432 8.403-3.759-6.193 9.066 1.107 2.653 12.824-5.749-1.106-2.432-8.623 3.759 6.412-9.066zm204.59 4.145c-.498.055-.942.166-1.384.277-1.548.442-2.652 1.548-3.315 3.096-.664 1.99-.886 3.538-.223 5.307.664 1.548 1.992 2.875 4.203 3.98 1.99.885 3.759 1.105 5.528.663s2.874-1.548 3.759-3.317c.663-1.548.883-2.653.662-3.98-.221-1.106-.884-2.212-2.211-3.317l-1.989 2.212c.884.664 1.326 1.327 1.989 2.211.222.664.001 1.327-.22 1.99-.443.885-1.329 1.548-2.213 1.769-1.106.221-2.432-.001-3.98-.885-1.548-.664-2.431-1.548-2.873-2.432a3.28 3.28 0 0 1 0-2.875c.221-.664.663-1.326 1.327-1.547s1.326-.442 1.99-.221l.662-2.875a6.1 6.1 0 0 0-1.712-.056m-198.402 9.122-12.384 7.077 1.548 2.431 12.163-7.076zm189.716 2.874-1.547 2.434 12.16 7.297 1.549-2.434zm-187.285 1.769-1.99 1.327 2.432 3.538-9.729 6.633 1.77 2.433 9.728-6.634 2.21 3.317 1.992-1.327zm184.077 5.058c-.332.083-.664.249-.996.47-.442.442-1.326 1.107-2.211 2.434l-3.538 4.863 11.498 8.403 1.548-1.989-4.865-3.539.443-.443c.221-.663.663-.883.884-1.105s.443-.441.885-.441h2.653l3.759.22 1.99-2.654-3.317-.221h-2.874c-.442 0-1.106.221-1.769.442.663-1.106.884-2.21.663-3.095-.221-1.105-.664-1.768-1.548-2.431-.664-.443-1.548-.886-2.211-.886a1.75 1.75 0 0 0-.994-.028m.552 2.46c.442 0 .664.222 1.106.444.222.221.663.441.663.883 0 .443.221.664 0 1.107 0 .442-.443 1.105-1.327 2.21l-1.327 1.769-2.874-2.654 1.327-1.769c.664-.884 1.105-1.325 1.326-1.546.442-.221.664-.444 1.106-.444m-176.894 3.538-10.835 9.287 7.297 7.96 1.77-1.546-5.308-5.972 2.875-2.653 4.643 5.307 1.77-1.548-4.644-5.307 2.432-1.99 5.087 5.749 1.768-1.327zm167.828 3.759-7.297 7.518 10.173 9.951 7.739-7.518-1.769-1.769-5.528 5.749-2.876-2.654 4.866-5.084-1.769-1.769-4.866 5.084-2.21-2.211 5.307-5.528zm-158.981 5.97-9.729 10.835 3.98 3.538c.885.885 1.548 1.327 2.211 1.548s1.547.442 2.21.442c.885 0 1.992-.441 2.876-.884.885-.442 1.547-1.105 2.432-1.99.884-1.105 1.548-1.99 1.99-2.875.22-.884.442-1.768.442-2.653 0-.884-.22-1.77-.663-2.433-.221-.442-.885-1.105-1.77-1.99zm149.696 3.538-3.317 2.654 3.759 9.287-7.96-5.97-3.317 2.653 8.845 11.057 2.211-1.549-7.076-8.845 9.287 7.076 2.213-1.769-4.866-10.614 7.077 8.845 1.989-1.769zm-149.257.221 1.106.885c.885.885 1.548 1.327 1.769 1.769.221.443.22.885.442 1.327.221.443 0 .884-.221 1.547-.221.442-.885 1.105-1.548 1.99-.663.884-1.327 1.327-1.99 1.769-.663.221-1.106.443-1.548.443-.442.221-.885.001-1.327-.221-.221-.221-.663-.664-1.326-1.106l-1.548-1.327zm16.28 10.56c-.36.055-.692.165-1.024.275-.663.221-1.104.664-1.546 1.327-.663.885-.886 1.991-.444 3.097.222.884.885 1.768 1.99 2.873.664.885 1.327 1.548 1.549 1.769.442.443.664.885.664 1.107s-.002.662-.223.883c-.22.442-.883.886-1.325.886q-.663-.001-1.99-.665a3.4 3.4 0 0 1-1.548-1.548c-.221-.442-.221-1.326.22-2.211l-2.431-1.104c-.663 1.547-.442 2.211 0 3.538s1.326 2.431 2.874 3.315c1.105.663 1.99.885 2.875 1.106.884 0 1.768.001 2.432-.441.663-.222 1.326-.885 1.769-1.549s.662-1.547.662-2.21q0-.996-.662-1.99c-.443-.664-1.106-1.328-2.211-2.434-1.106-1.105-1.548-1.768-1.77-2.211-.22-.221-.22-.662 0-.883.222-.221.442-.444.885-.444q.994 0 1.99.665c.663.442 1.327.885 1.327 1.327s0 1.104-.221 1.767l2.432 1.327c.663-1.105.885-2.211.443-3.317-.442-1.105-1.327-2.21-2.875-3.094-.885-.664-1.769-.885-2.653-1.107a2.95 2.95 0 0 0-1.189-.054m116.388 1.381-2.653 1.549 2.432 15.035 2.654-1.548-.664-3.317 4.865-2.874 2.653 2.211 2.654-1.548zm-106.36 3.759-.883 2.211 3.759 1.769-4.866 10.835 2.876 1.105 4.863-10.833 3.76 1.769.884-2.213zm106.579 0 4.423 3.538-3.317 1.99zm-13.93 3.538-9.066 3.318 4.866 13.267 2.873-.886-2.211-5.749 5.528-1.99-.883-2.21-5.528 1.99-1.107-3.097 6.412-2.432zm-77.833 2.432-9.729 11.94 2.875.886 2.211-2.653 5.528 1.767.221 3.538 2.874.886-1.105-15.478zm61.152 2.447q-.705.04-1.451.206c-1.106.442-1.989.664-2.874 1.327-.663.442-1.106 1.106-1.548 1.769-.442.664-.664 1.327-.885 2.211-.221 1.106 0 2.432.221 3.759.442 2.211 1.548 3.76 3.096 4.644q2.322 1.327 5.307.663c1.99-.442 3.537-1.547 4.422-3.094.884-1.548 1.106-3.54.664-5.751-.663-2.211-1.548-3.979-3.096-4.864q-1.741-.995-3.856-.87m-53.635.206-.442 2.433 4.201.884-2.431 11.498 2.652.443 2.434-11.499 4.2.885.442-2.432zm-7.076 1.327.223 5.528-3.76-1.104zm20.122 1.106-1.104 14.151 10.833.886.223-2.432-7.962-.665.221-3.759 7.076.665.221-2.434-7.074-.662.221-3.097 7.739.665.22-2.434zm40.627.231c.819-.093 1.607.156 2.27.653.885.664 1.327 1.769 1.769 3.317.443 1.769.222 3.096-.221 3.98-.442.885-1.326 1.548-2.431 1.769-1.106.221-2.212.001-3.097-.663q-1.326-.995-1.99-3.317c-.442-1.769-.221-2.874.442-3.759.442-.884 1.328-1.548 2.434-1.769q.414-.165.824-.211m-22.053.211c-1.105 0-2.21.221-2.873.663-.885.442-1.548.885-1.769 1.548-.221.664-.444 1.327-.444 1.99 0 1.106.443 2.212 1.327 2.875q.996.996 3.318 1.328c1.326.221 1.989.441 2.431.441.443.222.886.442 1.107.663 0 .221.221.443.221.885q0 .664-.663 1.326-.663.663-1.99.664c-.885 0-1.77-.222-2.213-.664a4.27 4.27 0 0 1-1.104-1.99l-2.876.442c.222 1.548.885 2.875 1.769 3.538 1.106.884 2.432 1.106 4.201 1.106 1.327 0 2.212-.22 3.097-.662a6.8 6.8 0 0 0 1.769-1.77c.442-.663.662-1.328.662-2.212s-.22-1.548-.662-2.211c-.222-.442-.885-1.104-1.549-1.325s-1.767-.665-3.094-.886a8.9 8.9 0 0 1-2.654-.883c-.222-.222-.442-.444-.442-.886s.22-.662.442-.883q.663-.665 1.989-.665c.664 0 1.327.223 1.77.444.442.221.664.883.885 1.546l2.873-.221a3.86 3.86 0 0 0-1.548-3.094c-.884-.885-2.211-1.107-3.98-1.107M123.654 24.81c-21.006 0-40.244 6.411-56.385 17.467 5.528-1.77 11.718-2.653 17.91-2.653 38.695 0 59.259 23.438 59.259 57.27 0 2.432-.22 4.642-.441 6.853-.443 2.875-.665 5.971-.665 9.066 0 19.238 17.689 36.927 38.917 36.927 25.871 0 45.772-35.157 33.168-63.24-14.815-36.263-50.192-61.69-91.763-61.69M83.273 43.852c-13.959.415-28.608 6.716-37.674 19.21-23.881 30.956-28.304 74.294-7.518 110.115 10.393 18.131 25.87 31.62 43.339 40.023-4.202-3.98-8.182-8.846-11.277-14.153-19.459-33.609-9.286-63.017 19.9-79.822a81 81 0 0 1 6.192-3.096c2.653-1.105 5.529-2.432 8.182-3.98 16.584-9.508 23.217-33.61 12.382-52.183-6.302-11.056-19.568-16.528-33.526-16.114m139.001 71.837c-1.327 5.749-3.539 11.276-6.634 16.804-19.238 33.61-49.751 39.58-78.939 22.554-1.99-1.105-3.98-2.432-5.749-3.759-2.432-1.768-4.865-3.538-7.518-5.086-16.584-9.508-40.687-3.096-51.3 15.257-13.046 22.333 7.52 57.268 38.034 60.365 38.695 5.306 78.496-12.825 99.285-48.646 10.393-18.132 14.594-38.252 12.825-57.489z"/></g><defs><clipPath id="a"><path fill="#fff" d="M0 0h247v247.88H0z"/></clipPath></defs></svg>