<svg xmlns="http://www.w3.org/2000/svg" viewBox="0 0 499 518" fill="none"><g fill="#fff" clip-path="url(#a)"><path fill-rule="evenodd" d="M245.492 1.273c1.784-.83 3.886-1.38 5.747-.449 81.105 36.046 162.164 72.216 243.253 108.3 1.334.582 2.746.977 4.173 1.342-3.669 2.435-7.811 3.956-11.79 5.771-12.132 5.484-24.341 10.789-36.503 16.203-3.04 1.412-6.074 2.886-9.262 3.933-4.406-1.699-9.091-2.412-13.707-3.242-47.634-9.254-95.284-18.422-142.918-27.637-3.257-.651-6.585-.977-9.773-1.924-2.079-.403-2.15-2.87-2.816-4.46-2.894-10.495-13.839-17.91-24.628-17.104-8.548.411-16.157 6.144-20.152 13.513-2.986 5.53-3.335 12.24-1.613 18.22 3.475 10.821 15.04 18.531 26.411 16.964 6.461-1.094 13.008-4.158 16.685-9.797 1.334-1.466 4.755-3.545 4.755-3.545l120.82 40.297 17.615-8.587 29.321-12.698c-.605 12.76-.108 25.552-.271 38.319.008 79.639-.016 159.278.015 238.916.613 7.222.698 14.475 1.536 21.681.535 7.268 1.954 14.435 2.435 21.719-5.507-1.994-10.572-4.98-16.126-6.872-5.119 8.059-10.549 15.932-15.87 23.867-3.708 4.514-6.399 9.75-9.944 14.389-.582-9.913-1.699-19.78-1.979-29.701-.752.776-1.474 1.59-2.063 2.513-13.016 22.627-33.525 41.088-57.781 50.908-12.402 4.848-26.326 7.47-39.418 3.856-9.867-2.351-18.268-8.914-24.217-16.965-6.772-9.587-10.542-21.059-11.845-32.655-6.128-50.575 16.91-103.088 57.082-134.1 11.829-9.068 25.365-16.188 39.994-19.399 7.889-1.746 16.305-3.041 24.186-.567 2.668.761 4.964 2.351 7.283 3.809.116-52.769.047-158.275.047-158.433 0 0-26.683 11.899-40.103 17.678-32.811 14.699-65.724 29.181-98.504 43.934-2.8 1.187-5.879 3.444-8.989 1.885-78.91-35.215-157.882-70.307-236.815-105.461-3.367-1.404-6.686-2.925-9.882-4.685 5.748-3.188 11.884-5.585 17.872-8.277C93.645 68.874 169.608 35.147 245.492 1.273M384.719 351.54c-4.398-2.451-9.666-3.335-14.607-2.389-7.57 1.257-14.676 4.522-20.935 8.897-10.72 7.33-18.966 17.863-24.683 29.452-6.314 13.155-9.533 27.786-9.347 42.384-.023 9.494 1.219 19.407 6.16 27.707 3.661 5.623 9.696 10.541 16.77 10.184 12.62.962 24.279-5.755 33.548-13.698 9.192-8.447 16.39-19.214 20.167-31.151 1.21-4.042 2.444-8.161 2.405-12.411-.039-13.978-.015-27.963.016-41.941-.349-6.655-3.778-13.419-9.494-17.034" clip-rule="evenodd"/><path d="M45.22 181.728c14.916 6.089 29.475 13.039 44.267 19.438 33.75 15.025 67.508 30.058 101.288 45.021 8.176 3.56 16.259 7.391 24.52 10.704-.225 15.986.039 31.988-.132 47.975-31.493-14.226-63.125-28.133-94.687-42.204-5.671-2.459-11.24-5.127-16.988-7.392-.015 18.034.085 36.069-.062 54.103 34.96 15.793 70.098 31.221 105.143 46.82 1.42.342 1.195 1.939 1.265 3.079-.039 15.064.008 30.128-.031 45.2-27.669-12.318-55.399-24.528-83.044-36.923-7.765-3.475-15.63-6.78-23.271-10.503.031 20.392 0 40.785.008 61.17-.194.946.373 1.668 1.249 1.978 37.124 16.468 74.233 32.982 111.333 49.481 1.388.263 1.567 1.621 1.489 2.823-.039 15.048-.008 30.097-.023 45.152-3.654-.993-7.059-2.799-10.542-4.273-53.847-24.031-107.796-47.836-161.612-71.913-.396-2.025-.217-4.104-.256-6.152.085-84.525-.085-169.051.086-253.584"/></g><defs><clipPath id="a"><path fill="#fff" d="M0 0h499v518H0z"/></clipPath></defs></svg>